<svg xmlns="http://www.w3.org/2000/svg" xmlns:xlink="http://www.w3.org/1999/xlink" width="425" zoomAndPan="magnify" viewBox="0 0 318.75 210.749996" height="281" preserveAspectRatio="xMidYMid meet" version="1.2"><defs><clipPath id="644c30b603"><path d="M 0.0625 4.71875 L 205.574219 4.71875 L 205.574219 210.230469 L 0.0625 210.230469 Z M 0.0625 4.71875 "/></clipPath><clipPath id="d9aa6098a8"><path d="M 102.820312 4.71875 C 46.070312 4.71875 0.0625 50.722656 0.0625 107.472656 C 0.0625 164.222656 46.070312 210.230469 102.820312 210.230469 C 159.570312 210.230469 205.574219 164.222656 205.574219 107.472656 C 205.574219 50.722656 159.570312 4.71875 102.820312 4.71875 Z M 102.820312 4.71875 "/></clipPath><clipPath id="e0a43807ed"><path d="M 0.0625 4.71875 L 205.320312 4.71875 L 205.320312 209.976562 L 0.0625 209.976562 Z M 0.0625 4.71875 "/></clipPath><clipPath id="8bda4bbc7a"><path d="M 102.691406 4.71875 C 46.011719 4.71875 0.0625 50.667969 0.0625 107.347656 C 0.0625 164.027344 46.011719 209.976562 102.691406 209.976562 C 159.371094 209.976562 205.320312 164.027344 205.320312 107.347656 C 205.320312 50.667969 159.371094 4.71875 102.691406 4.71875 Z M 102.691406 4.71875 "/></clipPath><clipPath id="5026971918"><path d="M 84 57 L 183 57 L 183 181 L 84 181 Z M 84 57 "/></clipPath><clipPath id="a16220096a"><path d="M 173.492188 49.695312 L 203.09375 161.195312 L 91.59375 190.796875 L 61.992188 79.296875 Z M 173.492188 49.695312 "/></clipPath><clipPath id="9d1239fc3e"><path d="M 173.492188 49.695312 L 203.09375 161.195312 L 91.59375 190.796875 L 61.992188 79.296875 Z M 173.492188 49.695312 "/></clipPath><clipPath id="dd288c69fb"><path d="M 100 130 L 138 130 L 138 167 L 100 167 Z M 100 130 "/></clipPath><clipPath id="c6551b56eb"><path d="M 173.492188 49.695312 L 203.09375 161.195312 L 91.59375 190.796875 L 61.992188 79.296875 Z M 173.492188 49.695312 "/></clipPath><clipPath id="b8836be65d"><path d="M 173.492188 49.695312 L 203.09375 161.195312 L 91.59375 190.796875 L 61.992188 79.296875 Z M 173.492188 49.695312 "/></clipPath><clipPath id="0e7b024b9e"><path d="M 161 63 L 176 63 L 176 78 L 161 78 Z M 161 63 "/></clipPath><clipPath id="d0efe48871"><path d="M 173.492188 49.695312 L 203.09375 161.195312 L 91.59375 190.796875 L 61.992188 79.296875 Z M 173.492188 49.695312 "/></clipPath><clipPath id="68742fd8ba"><path d="M 173.492188 49.695312 L 203.09375 161.195312 L 91.59375 190.796875 L 61.992188 79.296875 Z M 173.492188 49.695312 "/></clipPath><clipPath id="dc33e13e1c"><path d="M 139 59 L 156 59 L 156 68 L 139 68 Z M 139 59 "/></clipPath><clipPath id="4290e2a705"><path d="M 173.492188 49.695312 L 203.09375 161.195312 L 91.59375 190.796875 L 61.992188 79.296875 Z M 173.492188 49.695312 "/></clipPath><clipPath id="edc131f05c"><path d="M 173.492188 49.695312 L 203.09375 161.195312 L 91.59375 190.796875 L 61.992188 79.296875 Z M 173.492188 49.695312 "/></clipPath><clipPath id="64ce60953c"><path d="M 126 68 L 136 68 L 136 84 L 126 84 Z M 126 68 "/></clipPath><clipPath id="2d4c327a2e"><path d="M 173.492188 49.695312 L 203.09375 161.195312 L 91.59375 190.796875 L 61.992188 79.296875 Z M 173.492188 49.695312 "/></clipPath><clipPath id="e00d6f0656"><path d="M 173.492188 49.695312 L 203.09375 161.195312 L 91.59375 190.796875 L 61.992188 79.296875 Z M 173.492188 49.695312 "/></clipPath><clipPath id="2e45a7248d"><path d="M 120 92 L 130 92 L 130 109 L 120 109 Z M 120 92 "/></clipPath><clipPath id="67219bca05"><path d="M 173.492188 49.695312 L 203.09375 161.195312 L 91.59375 190.796875 L 61.992188 79.296875 Z M 173.492188 49.695312 "/></clipPath><clipPath id="5183965ff5"><path d="M 173.492188 49.695312 L 203.09375 161.195312 L 91.59375 190.796875 L 61.992188 79.296875 Z M 173.492188 49.695312 "/></clipPath><clipPath id="12cce48899"><path d="M 105 115 L 118 115 L 118 128 L 105 128 Z M 105 115 "/></clipPath><clipPath id="6fe994dbbd"><path d="M 173.492188 49.695312 L 203.09375 161.195312 L 91.59375 190.796875 L 61.992188 79.296875 Z M 173.492188 49.695312 "/></clipPath><clipPath id="59a0a0f44f"><path d="M 173.492188 49.695312 L 203.09375 161.195312 L 91.59375 190.796875 L 61.992188 79.296875 Z M 173.492188 49.695312 "/></clipPath><clipPath id="9091c5efb7"><path d="M 90 130 L 103 130 L 103 144 L 90 144 Z M 90 130 "/></clipPath><clipPath id="58a0ba366e"><path d="M 173.492188 49.695312 L 203.09375 161.195312 L 91.59375 190.796875 L 61.992188 79.296875 Z M 173.492188 49.695312 "/></clipPath><clipPath id="fb0c9dfd00"><path d="M 173.492188 49.695312 L 203.09375 161.195312 L 91.59375 190.796875 L 61.992188 79.296875 Z M 173.492188 49.695312 "/></clipPath><clipPath id="311589a528"><path d="M 89 152 L 101 152 L 101 169 L 89 169 Z M 89 152 "/></clipPath><clipPath id="47bfef91dc"><path d="M 173.492188 49.695312 L 203.09375 161.195312 L 91.59375 190.796875 L 61.992188 79.296875 Z M 173.492188 49.695312 "/></clipPath><clipPath id="f5e229be6b"><path d="M 173.492188 49.695312 L 203.09375 161.195312 L 91.59375 190.796875 L 61.992188 79.296875 Z M 173.492188 49.695312 "/></clipPath><clipPath id="d2c63a36d4"><path d="M 106 168 L 122 168 L 122 177 L 106 177 Z M 106 168 "/></clipPath><clipPath id="9a6c477742"><path d="M 173.492188 49.695312 L 203.09375 161.195312 L 91.59375 190.796875 L 61.992188 79.296875 Z M 173.492188 49.695312 "/></clipPath><clipPath id="56603461e4"><path d="M 173.492188 49.695312 L 203.09375 161.195312 L 91.59375 190.796875 L 61.992188 79.296875 Z M 173.492188 49.695312 "/></clipPath><clipPath id="b5e88226da"><path d="M 130 161 L 144 161 L 144 173 L 130 173 Z M 130 161 "/></clipPath><clipPath id="72e1e0e5e8"><path d="M 173.492188 49.695312 L 203.09375 161.195312 L 91.59375 190.796875 L 61.992188 79.296875 Z M 173.492188 49.695312 "/></clipPath><clipPath id="944c4bf17b"><path d="M 173.492188 49.695312 L 203.09375 161.195312 L 91.59375 190.796875 L 61.992188 79.296875 Z M 173.492188 49.695312 "/></clipPath><clipPath id="6ded42ed20"><path d="M 170 84 L 179 84 L 179 100 L 170 100 Z M 170 84 "/></clipPath><clipPath id="80f65f4e01"><path d="M 173.492188 49.695312 L 203.09375 161.195312 L 91.59375 190.796875 L 61.992188 79.296875 Z M 173.492188 49.695312 "/></clipPath><clipPath id="143d991805"><path d="M 173.492188 49.695312 L 203.09375 161.195312 L 91.59375 190.796875 L 61.992188 79.296875 Z M 173.492188 49.695312 "/></clipPath><clipPath id="61efaef4bb"><path d="M 168 106 L 177 106 L 177 124 L 168 124 Z M 168 106 "/></clipPath><clipPath id="f317f61c20"><path d="M 173.492188 49.695312 L 203.09375 161.195312 L 91.59375 190.796875 L 61.992188 79.296875 Z M 173.492188 49.695312 "/></clipPath><clipPath id="786299d425"><path d="M 173.492188 49.695312 L 203.09375 161.195312 L 91.59375 190.796875 L 61.992188 79.296875 Z M 173.492188 49.695312 "/></clipPath><clipPath id="92192a3415"><path d="M 157 128 L 169 128 L 169 146 L 157 146 Z M 157 128 "/></clipPath><clipPath id="273f69eab6"><path d="M 173.492188 49.695312 L 203.09375 161.195312 L 91.59375 190.796875 L 61.992188 79.296875 Z M 173.492188 49.695312 "/></clipPath><clipPath id="47de72115c"><path d="M 173.492188 49.695312 L 203.09375 161.195312 L 91.59375 190.796875 L 61.992188 79.296875 Z M 173.492188 49.695312 "/></clipPath><clipPath id="a0bf78576e"><path d="M 146 148 L 158 148 L 158 161 L 146 161 Z M 146 148 "/></clipPath><clipPath id="bb2b7422e6"><path d="M 173.492188 49.695312 L 203.09375 161.195312 L 91.59375 190.796875 L 61.992188 79.296875 Z M 173.492188 49.695312 "/></clipPath><clipPath id="ff8ba02118"><path d="M 173.492188 49.695312 L 203.09375 161.195312 L 91.59375 190.796875 L 61.992188 79.296875 Z M 173.492188 49.695312 "/></clipPath><clipPath id="d40c64b031"><path d="M 153 70 L 158 70 L 158 75 L 153 75 Z M 153 70 "/></clipPath><clipPath id="e561b20f0f"><path d="M 173.492188 49.695312 L 203.09375 161.195312 L 91.59375 190.796875 L 61.992188 79.296875 Z M 173.492188 49.695312 "/></clipPath><clipPath id="9997c16a1e"><path d="M 173.492188 49.695312 L 203.09375 161.195312 L 91.59375 190.796875 L 61.992188 79.296875 Z M 173.492188 49.695312 "/></clipPath><clipPath id="40412e8426"><path d="M 162 96 L 167 96 L 167 101 L 162 101 Z M 162 96 "/></clipPath><clipPath id="9ff0ef53af"><path d="M 173.492188 49.695312 L 203.09375 161.195312 L 91.59375 190.796875 L 61.992188 79.296875 Z M 173.492188 49.695312 "/></clipPath><clipPath id="a3e6a3710e"><path d="M 173.492188 49.695312 L 203.09375 161.195312 L 91.59375 190.796875 L 61.992188 79.296875 Z M 173.492188 49.695312 "/></clipPath><clipPath id="82baca6ce6"><path d="M 135 85 L 140 85 L 140 91 L 135 91 Z M 135 85 "/></clipPath><clipPath id="611040ee39"><path d="M 173.492188 49.695312 L 203.09375 161.195312 L 91.59375 190.796875 L 61.992188 79.296875 Z M 173.492188 49.695312 "/></clipPath><clipPath id="8ef0ef1356"><path d="M 173.492188 49.695312 L 203.09375 161.195312 L 91.59375 190.796875 L 61.992188 79.296875 Z M 173.492188 49.695312 "/></clipPath><clipPath id="d8974d2e61"><path d="M 142 138 L 147 138 L 147 143 L 142 143 Z M 142 138 "/></clipPath><clipPath id="90ba07e69f"><path d="M 173.492188 49.695312 L 203.09375 161.195312 L 91.59375 190.796875 L 61.992188 79.296875 Z M 173.492188 49.695312 "/></clipPath><clipPath id="11598320ad"><path d="M 173.492188 49.695312 L 203.09375 161.195312 L 91.59375 190.796875 L 61.992188 79.296875 Z M 173.492188 49.695312 "/></clipPath><clipPath id="0f33d7555e"><path d="M 120 115 L 125 115 L 125 120 L 120 120 Z M 120 115 "/></clipPath><clipPath id="3f88bde434"><path d="M 173.492188 49.695312 L 203.09375 161.195312 L 91.59375 190.796875 L 61.992188 79.296875 Z M 173.492188 49.695312 "/></clipPath><clipPath id="61b9cd6698"><path d="M 173.492188 49.695312 L 203.09375 161.195312 L 91.59375 190.796875 L 61.992188 79.296875 Z M 173.492188 49.695312 "/></clipPath><clipPath id="4ed2685365"><path d="M 144 110 L 149 110 L 149 116 L 144 116 Z M 144 110 "/></clipPath><clipPath id="4c5a4f3ad5"><path d="M 173.492188 49.695312 L 203.09375 161.195312 L 91.59375 190.796875 L 61.992188 79.296875 Z M 173.492188 49.695312 "/></clipPath><clipPath id="ce7222c2f8"><path d="M 173.492188 49.695312 L 203.09375 161.195312 L 91.59375 190.796875 L 61.992188 79.296875 Z M 173.492188 49.695312 "/></clipPath><clipPath id="1d1c8f6b8d"><path d="M 158 123 L 163 123 L 163 128 L 158 128 Z M 158 123 "/></clipPath><clipPath id="4be019ed4a"><path d="M 173.492188 49.695312 L 203.09375 161.195312 L 91.59375 190.796875 L 61.992188 79.296875 Z M 173.492188 49.695312 "/></clipPath><clipPath id="247b835cd1"><path d="M 173.492188 49.695312 L 203.09375 161.195312 L 91.59375 190.796875 L 61.992188 79.296875 Z M 173.492188 49.695312 "/></clipPath><clipPath id="fa9e0c6553"><path d="M 132 123 L 137 123 L 137 129 L 132 129 Z M 132 123 "/></clipPath><clipPath id="0809c774eb"><path d="M 173.492188 49.695312 L 203.09375 161.195312 L 91.59375 190.796875 L 61.992188 79.296875 Z M 173.492188 49.695312 "/></clipPath><clipPath id="fc7cba7427"><path d="M 173.492188 49.695312 L 203.09375 161.195312 L 91.59375 190.796875 L 61.992188 79.296875 Z M 173.492188 49.695312 "/></clipPath><clipPath id="58c5724205"><path d="M 112 134 L 125 134 L 125 146 L 112 146 Z M 112 134 "/></clipPath><clipPath id="d2d0f9e04c"><path d="M 173.492188 49.695312 L 203.09375 161.195312 L 91.59375 190.796875 L 61.992188 79.296875 Z M 173.492188 49.695312 "/></clipPath><clipPath id="7837b358c8"><path d="M 173.492188 49.695312 L 203.09375 161.195312 L 91.59375 190.796875 L 61.992188 79.296875 Z M 173.492188 49.695312 "/></clipPath><clipPath id="7dedaeaafa"><path d="M 119 145 L 134 145 L 134 160 L 119 160 Z M 119 145 "/></clipPath><clipPath id="a4272b94eb"><path d="M 173.492188 49.695312 L 203.09375 161.195312 L 91.59375 190.796875 L 61.992188 79.296875 Z M 173.492188 49.695312 "/></clipPath><clipPath id="920466c2da"><path d="M 173.492188 49.695312 L 203.09375 161.195312 L 91.59375 190.796875 L 61.992188 79.296875 Z M 173.492188 49.695312 "/></clipPath><clipPath id="cc76c19a20"><path d="M 107 145 L 118 145 L 118 156 L 107 156 Z M 107 145 "/></clipPath><clipPath id="37e56bbccd"><path d="M 173.492188 49.695312 L 203.09375 161.195312 L 91.59375 190.796875 L 61.992188 79.296875 Z M 173.492188 49.695312 "/></clipPath><clipPath id="5ec8127a69"><path d="M 173.492188 49.695312 L 203.09375 161.195312 L 91.59375 190.796875 L 61.992188 79.296875 Z M 173.492188 49.695312 "/></clipPath><clipPath id="7087ec3808"><path d="M 93 146 L 98 146 L 98 151 L 93 151 Z M 93 146 "/></clipPath><clipPath id="188883bb92"><path d="M 173.492188 49.695312 L 203.09375 161.195312 L 91.59375 190.796875 L 61.992188 79.296875 Z M 173.492188 49.695312 "/></clipPath><clipPath id="cc25a0046f"><path d="M 173.492188 49.695312 L 203.09375 161.195312 L 91.59375 190.796875 L 61.992188 79.296875 Z M 173.492188 49.695312 "/></clipPath><clipPath id="f11e6e0a4d"><path d="M 153 81 L 159 81 L 159 86 L 153 86 Z M 153 81 "/></clipPath><clipPath id="ffd0c1e090"><path d="M 173.492188 49.695312 L 203.09375 161.195312 L 91.59375 190.796875 L 61.992188 79.296875 Z M 173.492188 49.695312 "/></clipPath><clipPath id="adba73911b"><path d="M 173.492188 49.695312 L 203.09375 161.195312 L 91.59375 190.796875 L 61.992188 79.296875 Z M 173.492188 49.695312 "/></clipPath><clipPath id="3f1662d17d"><path d="M 137 95 L 142 95 L 142 100 L 137 100 Z M 137 95 "/></clipPath><clipPath id="0ddd50367a"><path d="M 173.492188 49.695312 L 203.09375 161.195312 L 91.59375 190.796875 L 61.992188 79.296875 Z M 173.492188 49.695312 "/></clipPath><clipPath id="7fe3d754f3"><path d="M 173.492188 49.695312 L 203.09375 161.195312 L 91.59375 190.796875 L 61.992188 79.296875 Z M 173.492188 49.695312 "/></clipPath><clipPath id="3031abd17d"><path d="M 12 16 L 135 16 L 135 157 L 12 157 Z M 12 16 "/></clipPath><clipPath id="da916024b9"><path d="M 0.0664062 27.394531 L 140.902344 12.910156 L 155.386719 153.75 L 14.546875 168.234375 Z M 0.0664062 27.394531 "/></clipPath><clipPath id="402e5a2417"><path d="M 0.0664062 27.394531 L 140.902344 12.910156 L 155.386719 153.75 L 14.546875 168.234375 Z M 0.0664062 27.394531 "/></clipPath><clipPath id="070266f466"><path d="M 34 34 L 143 34 L 143 165 L 34 165 Z M 34 34 "/></clipPath><clipPath id="e236a204a0"><path d="M 0.0664062 27.394531 L 140.902344 12.910156 L 155.386719 153.75 L 14.546875 168.234375 Z M 0.0664062 27.394531 "/></clipPath><clipPath id="58ada5e11b"><path d="M 0.0664062 27.394531 L 140.902344 12.910156 L 155.386719 153.75 L 14.546875 168.234375 Z M 0.0664062 27.394531 "/></clipPath><clipPath id="17f942a6c7"><path d="M 35 36 L 135 36 L 135 157 L 35 157 Z M 35 36 "/></clipPath><clipPath id="2bcb49c46b"><path d="M 0.0664062 27.394531 L 140.902344 12.910156 L 155.386719 153.75 L 14.546875 168.234375 Z M 0.0664062 27.394531 "/></clipPath><clipPath id="22e3d2a053"><path d="M 0.0664062 27.394531 L 140.902344 12.910156 L 155.386719 153.75 L 14.546875 168.234375 Z M 0.0664062 27.394531 "/></clipPath></defs><g id="d9f6541e56"><g clip-rule="nonzero" clip-path="url(#644c30b603)"><g clip-rule="nonzero" clip-path="url(#d9aa6098a8)"><path style=" stroke:none;fill-rule:nonzero;fill:#1b4a3b;fill-opacity:1;" d="M 0.0625 4.71875 L 205.574219 4.71875 L 205.574219 210.230469 L 0.0625 210.230469 Z M 0.0625 4.71875 "/></g></g><g clip-rule="nonzero" clip-path="url(#e0a43807ed)"><g clip-rule="nonzero" clip-path="url(#8bda4bbc7a)"><path style="fill:none;stroke-width:16;stroke-linecap:butt;stroke-linejoin:miter;stroke:#8ebb54;stroke-opacity:1;stroke-miterlimit:4;" d="M 137.162956 0.000720146 C 61.409777 0.000720146 -0.00198388 61.412481 -0.00198388 137.165661 C -0.00198388 212.91884 61.409777 274.330601 137.162956 274.330601 C 212.916136 274.330601 274.327897 212.91884 274.327897 137.165661 C 274.327897 61.412481 212.916136 0.000720146 137.162956 0.000720146 Z M 137.162956 0.000720146 " transform="matrix(0.748215,0,0,0.748215,0.0639844,4.718211)"/></g></g><g clip-rule="nonzero" clip-path="url(#5026971918)"><g clip-rule="nonzero" clip-path="url(#a16220096a)"><g clip-rule="nonzero" clip-path="url(#9d1239fc3e)"><path style=" stroke:none;fill-rule:nonzero;fill:#5d9f41;fill-opacity:1;" d="M 102.742188 176.957031 C 113.53125 181.964844 126.65625 181.042969 137.503906 175.988281 C 149.148438 170.558594 158.378906 160.871094 165.339844 150.070312 C 176.339844 133.003906 182.21875 112.683594 182.03125 92.378906 C 181.972656 85.671875 181.222656 78.824219 178.332031 72.773438 C 174.980469 65.769531 169.378906 61.609375 160.925781 58.816406 C 155.53125 56.769531 149.03125 57.195312 143.378906 58.296875 C 134.671875 60 126.789062 66.105469 123.589844 74.378906 C 120.40625 82.625 121.894531 92.050781 119.054688 100.421875 C 113.183594 117.730469 90.910156 125.597656 85.820312 143.152344 C 82.246094 155.488281 89.222656 169.441406 100.40625 175.757812 C 101.171875 176.191406 101.953125 176.59375 102.746094 176.960938 Z M 102.742188 176.957031 "/></g></g></g><g clip-rule="nonzero" clip-path="url(#dd288c69fb)"><g clip-rule="nonzero" clip-path="url(#c6551b56eb)"><g clip-rule="nonzero" clip-path="url(#b8836be65d)"><path style=" stroke:none;fill-rule:nonzero;fill:#8ebb54;fill-opacity:1;" d="M 123.710938 166.089844 C 123.132812 166.242188 122.546875 166.367188 121.957031 166.464844 C 121.367188 166.558594 120.773438 166.625 120.179688 166.664062 C 119.582031 166.703125 118.984375 166.710938 118.386719 166.6875 C 117.789062 166.667969 117.195312 166.617188 116.601562 166.539062 C 116.011719 166.460938 115.421875 166.351562 114.839844 166.214844 C 114.257812 166.078125 113.6875 165.910156 113.121094 165.71875 C 112.554688 165.523438 112 165.304688 111.457031 165.054688 C 110.914062 164.808594 110.382812 164.535156 109.867188 164.234375 C 109.347656 163.933594 108.847656 163.609375 108.363281 163.261719 C 107.878906 162.910156 107.410156 162.539062 106.960938 162.144531 C 106.515625 161.75 106.085938 161.332031 105.679688 160.894531 C 105.269531 160.457031 104.886719 160.003906 104.523438 159.527344 C 104.160156 159.050781 103.820312 158.5625 103.507812 158.050781 C 103.191406 157.542969 102.902344 157.023438 102.640625 156.484375 C 102.378906 155.949219 102.140625 155.398438 101.933594 154.839844 C 101.722656 154.28125 101.542969 153.710938 101.386719 153.132812 C 101.234375 152.554688 101.109375 151.972656 101.015625 151.382812 C 100.917969 150.792969 100.851562 150.199219 100.8125 149.601562 C 100.777344 149.007812 100.765625 148.410156 100.789062 147.8125 C 100.808594 147.214844 100.859375 146.621094 100.9375 146.027344 C 101.019531 145.433594 101.125 144.847656 101.261719 144.265625 C 101.402344 143.683594 101.566406 143.109375 101.757812 142.546875 C 101.953125 141.980469 102.171875 141.425781 102.421875 140.882812 C 102.667969 140.335938 102.941406 139.808594 103.242188 139.289062 C 103.542969 138.773438 103.867188 138.273438 104.21875 137.789062 C 104.566406 137.300781 104.9375 136.835938 105.332031 136.386719 C 105.730469 135.9375 106.144531 135.511719 106.582031 135.101562 C 107.019531 134.695312 107.476562 134.308594 107.949219 133.949219 C 108.425781 133.585938 108.917969 133.246094 109.425781 132.929688 C 109.933594 132.617188 110.457031 132.328125 110.992188 132.066406 C 111.53125 131.800781 112.078125 131.566406 112.636719 131.355469 C 113.199219 131.148438 113.765625 130.964844 114.34375 130.8125 C 114.921875 130.660156 115.503906 130.535156 116.09375 130.4375 C 116.683594 130.34375 117.277344 130.277344 117.875 130.238281 C 118.472656 130.199219 119.066406 130.191406 119.664062 130.214844 C 120.261719 130.234375 120.859375 130.285156 121.449219 130.363281 C 122.042969 130.441406 122.628906 130.550781 123.210938 130.6875 C 123.792969 130.824219 124.367188 130.992188 124.933594 131.183594 C 125.496094 131.378906 126.050781 131.597656 126.597656 131.847656 C 127.140625 132.09375 127.671875 132.367188 128.1875 132.667969 C 128.703125 132.96875 129.207031 133.292969 129.691406 133.640625 C 130.175781 133.992188 130.640625 134.363281 131.089844 134.757812 C 131.539062 135.152344 131.96875 135.570312 132.375 136.007812 C 132.78125 136.445312 133.167969 136.898438 133.53125 137.375 C 133.894531 137.851562 134.230469 138.339844 134.546875 138.851562 C 134.859375 139.359375 135.148438 139.878906 135.414062 140.417969 C 135.675781 140.953125 135.910156 141.503906 136.121094 142.0625 C 136.332031 142.621094 136.511719 143.191406 136.664062 143.769531 C 136.816406 144.347656 136.941406 144.929688 137.039062 145.519531 C 137.136719 146.109375 137.203125 146.703125 137.238281 147.300781 C 137.277344 147.894531 137.285156 148.492188 137.265625 149.089844 C 137.242188 149.6875 137.195312 150.28125 137.113281 150.875 C 137.035156 151.46875 136.925781 152.054688 136.789062 152.636719 C 136.652344 153.21875 136.488281 153.792969 136.292969 154.355469 C 136.101562 154.921875 135.878906 155.476562 135.632812 156.019531 C 135.382812 156.566406 135.109375 157.09375 134.808594 157.613281 C 134.507812 158.128906 134.183594 158.628906 133.835938 159.113281 C 133.488281 159.601562 133.113281 160.066406 132.71875 160.515625 C 132.324219 160.964844 131.90625 161.390625 131.472656 161.800781 C 131.035156 162.207031 130.578125 162.59375 130.101562 162.953125 C 129.628906 163.316406 129.136719 163.65625 128.628906 163.96875 C 128.121094 164.285156 127.597656 164.574219 127.058594 164.835938 C 126.523438 165.101562 125.976562 165.335938 125.414062 165.546875 C 124.855469 165.753906 124.285156 165.9375 123.710938 166.089844 Z M 123.710938 166.089844 "/></g></g></g><g clip-rule="nonzero" clip-path="url(#0e7b024b9e)"><g clip-rule="nonzero" clip-path="url(#d0efe48871)"><g clip-rule="nonzero" clip-path="url(#68742fd8ba)"><path style=" stroke:none;fill-rule:nonzero;fill:#8ebb54;fill-opacity:1;" d="M 175.160156 75.050781 C 175.644531 73.230469 174.488281 71.746094 173.304688 70.519531 C 171.960938 69.132812 170.496094 67.863281 168.9375 66.714844 C 167.722656 65.378906 166.347656 64.273438 164.542969 63.714844 C 163.46875 63.378906 162.199219 63.863281 161.621094 64.832031 C 160.78125 66.238281 160.824219 67.914062 161.847656 69.230469 C 162.757812 70.394531 164.140625 70.800781 165.339844 71.582031 C 166.476562 72.324219 167.46875 73.332031 168.199219 74.46875 C 169.089844 75.855469 169.863281 77.363281 171.726562 77.503906 C 173.320312 77.625 174.746094 76.585938 175.160156 75.050781 Z M 175.160156 75.050781 "/></g></g></g><g clip-rule="nonzero" clip-path="url(#dc33e13e1c)"><g clip-rule="nonzero" clip-path="url(#4290e2a705)"><g clip-rule="nonzero" clip-path="url(#edc131f05c)"><path style=" stroke:none;fill-rule:nonzero;fill:#8ebb54;fill-opacity:1;" d="M 152.179688 65.882812 C 152.769531 65.851562 153.253906 65.652344 153.640625 65.355469 C 156.058594 64.992188 156.875 61.105469 154.058594 60.390625 C 149.609375 59.265625 144.28125 59.917969 140.359375 62.3125 C 139.175781 63.035156 138.667969 64.535156 139.359375 65.792969 C 140.597656 68.042969 143.242188 68.292969 145.320312 67.054688 C 146.339844 66.449219 146.816406 66.210938 148.007812 66.136719 C 149.398438 66.046875 150.789062 65.96875 152.179688 65.882812 Z M 152.179688 65.882812 "/></g></g></g><g clip-rule="nonzero" clip-path="url(#64ce60953c)"><g clip-rule="nonzero" clip-path="url(#2d4c327a2e)"><g clip-rule="nonzero" clip-path="url(#e00d6f0656)"><path style=" stroke:none;fill-rule:nonzero;fill:#8ebb54;fill-opacity:1;" d="M 132.949219 81.46875 C 133.691406 80.328125 133.507812 79.1875 133.476562 77.929688 C 133.445312 76.792969 133.640625 75.699219 134.152344 74.675781 C 134.335938 74.308594 134.425781 73.941406 134.441406 73.589844 C 137.320312 72.027344 134.851562 67.5625 131.945312 69.117188 C 129.734375 70.304688 128.527344 72.355469 128.308594 74.820312 C 128.269531 75.253906 128.316406 75.664062 128.144531 76.066406 C 127.960938 76.503906 127.496094 76.855469 127.25 77.273438 C 126.566406 78.425781 126.355469 79.929688 126.976562 81.15625 C 128.195312 83.558594 131.472656 83.734375 132.949219 81.46875 Z M 132.949219 81.46875 "/></g></g></g><g clip-rule="nonzero" clip-path="url(#2e45a7248d)"><g clip-rule="nonzero" clip-path="url(#67219bca05)"><g clip-rule="nonzero" clip-path="url(#5183965ff5)"><path style=" stroke:none;fill-rule:nonzero;fill:#8ebb54;fill-opacity:1;" d="M 127.777344 104.902344 C 129.128906 102.820312 129.804688 100.308594 129.699219 97.832031 C 129.691406 97.703125 129.675781 97.582031 129.65625 97.460938 C 129.710938 96.554688 129.660156 95.636719 129.515625 94.703125 C 129.015625 91.445312 124.042969 92.664062 124.539062 95.90625 C 124.859375 98.003906 123.984375 99.710938 122.617188 101.226562 C 121.164062 102.84375 119.828125 104.554688 120.15625 106.84375 C 120.273438 107.65625 121.109375 108.53125 121.910156 108.695312 C 124.449219 109.21875 126.511719 106.847656 127.777344 104.902344 Z M 127.777344 104.902344 "/></g></g></g><g clip-rule="nonzero" clip-path="url(#12cce48899)"><g clip-rule="nonzero" clip-path="url(#6fe994dbbd)"><g clip-rule="nonzero" clip-path="url(#59a0a0f44f)"><path style=" stroke:none;fill-rule:nonzero;fill:#8ebb54;fill-opacity:1;" d="M 113.003906 124.289062 C 114.449219 122.820312 115.695312 121.148438 116.710938 119.359375 C 118.183594 116.765625 114.738281 114.320312 112.867188 116.023438 C 112.601562 116.140625 112.347656 116.316406 112.101562 116.558594 C 110.40625 118.238281 108.675781 119.886719 107.015625 121.601562 C 106.222656 122.417969 105.570312 123.195312 105.566406 124.394531 C 105.5625 125.632812 106.433594 126.726562 107.609375 127.082031 C 109.703125 127.714844 111.679688 125.625 113 124.285156 Z M 113.003906 124.289062 "/></g></g></g><g clip-rule="nonzero" clip-path="url(#9091c5efb7)"><g clip-rule="nonzero" clip-path="url(#58a0ba366e)"><g clip-rule="nonzero" clip-path="url(#fb0c9dfd00)"><path style=" stroke:none;fill-rule:nonzero;fill:#8ebb54;fill-opacity:1;" d="M 95.230469 142.664062 C 97.175781 140.699219 98.601562 138.507812 99.714844 135.992188 C 100.15625 135.597656 100.621094 135.226562 101.109375 134.890625 C 102.246094 134.105469 102.824219 132.703125 102.109375 131.410156 C 101.488281 130.289062 99.773438 129.621094 98.625 130.410156 C 95.09375 132.839844 92.523438 136.066406 91.003906 140.082031 C 90.082031 142.507812 93.484375 144.421875 95.230469 142.664062 Z M 95.230469 142.664062 "/></g></g></g><g clip-rule="nonzero" clip-path="url(#311589a528)"><g clip-rule="nonzero" clip-path="url(#47bfef91dc)"><g clip-rule="nonzero" clip-path="url(#f5e229be6b)"><path style=" stroke:none;fill-rule:nonzero;fill:#8ebb54;fill-opacity:1;" d="M 100.875 165.027344 C 100.886719 163.554688 99.925781 162.570312 98.949219 161.597656 C 96.941406 159.601562 95.679688 157.191406 95.097656 154.421875 C 94.890625 153.4375 94.285156 152.871094 93.5625 152.640625 C 91.996094 151.832031 89.726562 152.464844 89.871094 154.679688 C 90.070312 157.738281 90.800781 160.683594 92.292969 163.382812 C 93.484375 165.53125 95.554688 168.90625 98.472656 168.140625 C 99.890625 167.769531 100.863281 166.5 100.875 165.03125 Z M 100.875 165.027344 "/></g></g></g><g clip-rule="nonzero" clip-path="url(#d2c63a36d4)"><g clip-rule="nonzero" clip-path="url(#9a6c477742)"><g clip-rule="nonzero" clip-path="url(#56603461e4)"><path style=" stroke:none;fill-rule:nonzero;fill:#8ebb54;fill-opacity:1;" d="M 120.578125 175.445312 C 121.988281 173.359375 120.472656 170.894531 118.078125 170.824219 C 115.707031 170.757812 113.828125 170.703125 111.707031 169.445312 C 111.175781 169.128906 110.648438 169.027344 110.160156 169.082031 C 107.570312 167.90625 105.300781 171.941406 107.902344 173.675781 C 109.761719 174.917969 111.851562 175.867188 114.039062 176.347656 C 116.0625 176.792969 119.183594 177.503906 120.574219 175.445312 Z M 120.578125 175.445312 "/></g></g></g><g clip-rule="nonzero" clip-path="url(#b5e88226da)"><g clip-rule="nonzero" clip-path="url(#72e1e0e5e8)"><g clip-rule="nonzero" clip-path="url(#944c4bf17b)"><path style=" stroke:none;fill-rule:nonzero;fill:#8ebb54;fill-opacity:1;" d="M 143.445312 164.832031 C 143.878906 162.519531 141.164062 160.234375 139.21875 162.246094 C 136.949219 164.597656 134.398438 166.445312 131.460938 167.875 C 128.832031 169.160156 130.496094 172.832031 132.976562 172.628906 C 133.140625 172.660156 133.3125 172.679688 133.496094 172.683594 C 138.273438 172.757812 142.546875 169.613281 143.445312 164.828125 Z M 143.445312 164.832031 "/></g></g></g><g clip-rule="nonzero" clip-path="url(#6ded42ed20)"><g clip-rule="nonzero" clip-path="url(#80f65f4e01)"><g clip-rule="nonzero" clip-path="url(#143d991805)"><path style=" stroke:none;fill-rule:nonzero;fill:#8ebb54;fill-opacity:1;" d="M 175.105469 99.3125 C 176.832031 98.113281 177.753906 94.867188 178.050781 92.90625 C 178.480469 90.066406 177.363281 87.609375 175.722656 85.351562 C 174.707031 83.957031 172.261719 83.34375 171.300781 85.257812 C 170.859375 86.136719 170.574219 86.933594 170.636719 87.925781 C 170.664062 88.335938 170.765625 88.699219 170.925781 89.011719 C 171.152344 91.347656 170.945312 93.636719 170.519531 95.953125 C 170.269531 97.296875 170.441406 98.550781 171.652344 99.378906 C 172.710938 100.109375 174.074219 100.035156 175.109375 99.3125 Z M 175.105469 99.3125 "/></g></g></g><g clip-rule="nonzero" clip-path="url(#61efaef4bb)"><g clip-rule="nonzero" clip-path="url(#f317f61c20)"><g clip-rule="nonzero" clip-path="url(#786299d425)"><path style=" stroke:none;fill-rule:nonzero;fill:#8ebb54;fill-opacity:1;" d="M 172.949219 122.632812 C 173.894531 121.8125 174.253906 120.378906 174.644531 119.25 C 175.089844 117.945312 175.472656 116.621094 175.769531 115.277344 C 176.382812 112.453125 176.367188 109.925781 174.472656 107.59375 C 172.726562 105.4375 169.835938 107.625 170.207031 109.890625 C 169.539062 112.882812 168.84375 115.867188 168.226562 118.871094 C 167.902344 120.417969 167.757812 121.84375 169.195312 122.867188 C 170.34375 123.683594 171.886719 123.558594 172.949219 122.636719 Z M 172.949219 122.632812 "/></g></g></g><g clip-rule="nonzero" clip-path="url(#92192a3415)"><g clip-rule="nonzero" clip-path="url(#273f69eab6)"><g clip-rule="nonzero" clip-path="url(#47de72115c)"><path style=" stroke:none;fill-rule:nonzero;fill:#8ebb54;fill-opacity:1;" d="M 166.71875 139.789062 C 168.039062 137.269531 168.75 134.523438 168.804688 131.679688 C 168.824219 130.632812 168.320312 129.902344 167.621094 129.5 C 166.550781 128.425781 164.628906 128.1875 163.660156 129.882812 C 161.960938 132.855469 160.234375 135.820312 158.558594 138.8125 C 157.886719 140.007812 157.214844 141.25 157.554688 142.667969 C 157.925781 144.195312 159.277344 145.242188 160.847656 145.234375 C 163.480469 145.222656 165.628906 141.871094 166.71875 139.789062 Z M 166.71875 139.789062 "/></g></g></g><g clip-rule="nonzero" clip-path="url(#a0bf78576e)"><g clip-rule="nonzero" clip-path="url(#bb2b7422e6)"><g clip-rule="nonzero" clip-path="url(#ff8ba02118)"><path style=" stroke:none;fill-rule:nonzero;fill:#8ebb54;fill-opacity:1;" d="M 150.144531 160.261719 C 153.390625 158.792969 155.742188 156.042969 156.949219 152.722656 C 157 152.589844 157.035156 152.460938 157.058594 152.332031 C 158.425781 150.058594 155.25 147.082031 153.0625 149.203125 C 151.445312 150.769531 149.816406 152.320312 148.210938 153.898438 C 146.597656 155.484375 145.761719 157.042969 146.664062 159.261719 C 147.210938 160.613281 149.011719 160.773438 150.144531 160.261719 Z M 150.144531 160.261719 "/></g></g></g><g clip-rule="nonzero" clip-path="url(#d40c64b031)"><g clip-rule="nonzero" clip-path="url(#e561b20f0f)"><g clip-rule="nonzero" clip-path="url(#9997c16a1e)"><path style=" stroke:none;fill-rule:nonzero;fill:#8ebb54;fill-opacity:1;" d="M 156.0625 74.394531 C 155.792969 74.464844 155.515625 74.484375 155.238281 74.445312 C 154.960938 74.410156 154.699219 74.320312 154.457031 74.179688 C 154.214844 74.039062 154.007812 73.855469 153.839844 73.632812 C 153.667969 73.410156 153.546875 73.164062 153.476562 72.894531 C 153.40625 72.621094 153.386719 72.347656 153.425781 72.070312 C 153.460938 71.792969 153.550781 71.53125 153.691406 71.289062 C 153.832031 71.046875 154.015625 70.839844 154.238281 70.671875 C 154.460938 70.5 154.707031 70.378906 154.976562 70.308594 C 155.25 70.234375 155.523438 70.21875 155.800781 70.253906 C 156.078125 70.292969 156.339844 70.382812 156.582031 70.523438 C 156.824219 70.664062 157.03125 70.84375 157.199219 71.066406 C 157.371094 71.289062 157.492188 71.535156 157.5625 71.808594 C 157.636719 72.078125 157.652344 72.351562 157.617188 72.632812 C 157.578125 72.910156 157.488281 73.167969 157.347656 73.410156 C 157.207031 73.652344 157.027344 73.859375 156.804688 74.03125 C 156.582031 74.199219 156.332031 74.320312 156.0625 74.394531 Z M 156.0625 74.394531 "/></g></g></g><g clip-rule="nonzero" clip-path="url(#40412e8426)"><g clip-rule="nonzero" clip-path="url(#9ff0ef53af)"><g clip-rule="nonzero" clip-path="url(#a3e6a3710e)"><path style=" stroke:none;fill-rule:nonzero;fill:#8ebb54;fill-opacity:1;" d="M 165.175781 100.769531 C 164.902344 100.84375 164.628906 100.859375 164.351562 100.820312 C 164.074219 100.785156 163.8125 100.695312 163.570312 100.554688 C 163.328125 100.414062 163.121094 100.234375 162.953125 100.007812 C 162.78125 99.785156 162.660156 99.539062 162.589844 99.269531 C 162.515625 98.996094 162.5 98.722656 162.539062 98.445312 C 162.574219 98.167969 162.664062 97.90625 162.804688 97.664062 C 162.945312 97.421875 163.125 97.214844 163.347656 97.046875 C 163.574219 96.875 163.820312 96.753906 164.089844 96.683594 C 164.359375 96.609375 164.636719 96.59375 164.914062 96.632812 C 165.191406 96.667969 165.453125 96.757812 165.695312 96.898438 C 165.9375 97.039062 166.144531 97.21875 166.3125 97.441406 C 166.484375 97.667969 166.605469 97.914062 166.675781 98.183594 C 166.75 98.453125 166.765625 98.730469 166.726562 99.007812 C 166.691406 99.285156 166.601562 99.546875 166.460938 99.789062 C 166.320312 100.03125 166.140625 100.238281 165.914062 100.40625 C 165.691406 100.578125 165.445312 100.699219 165.175781 100.769531 Z M 165.175781 100.769531 "/></g></g></g><g clip-rule="nonzero" clip-path="url(#82baca6ce6)"><g clip-rule="nonzero" clip-path="url(#611040ee39)"><g clip-rule="nonzero" clip-path="url(#8ef0ef1356)"><path style=" stroke:none;fill-rule:nonzero;fill:#8ebb54;fill-opacity:1;" d="M 138.160156 90.125 C 137.890625 90.199219 137.613281 90.214844 137.335938 90.175781 C 137.058594 90.140625 136.796875 90.050781 136.554688 89.910156 C 136.3125 89.769531 136.105469 89.589844 135.9375 89.363281 C 135.765625 89.140625 135.644531 88.894531 135.574219 88.625 C 135.503906 88.351562 135.484375 88.078125 135.523438 87.800781 C 135.558594 87.523438 135.648438 87.261719 135.789062 87.019531 C 135.929688 86.777344 136.113281 86.570312 136.335938 86.402344 C 136.558594 86.230469 136.804688 86.109375 137.074219 86.039062 C 137.347656 85.964844 137.621094 85.949219 137.898438 85.984375 C 138.175781 86.023438 138.4375 86.113281 138.679688 86.253906 C 138.921875 86.394531 139.128906 86.574219 139.296875 86.796875 C 139.46875 87.019531 139.589844 87.269531 139.660156 87.539062 C 139.734375 87.808594 139.75 88.085938 139.714844 88.363281 C 139.675781 88.640625 139.585938 88.902344 139.445312 89.144531 C 139.304688 89.386719 139.125 89.59375 138.902344 89.761719 C 138.679688 89.933594 138.429688 90.054688 138.160156 90.125 Z M 138.160156 90.125 "/></g></g></g><g clip-rule="nonzero" clip-path="url(#d8974d2e61)"><g clip-rule="nonzero" clip-path="url(#90ba07e69f)"><g clip-rule="nonzero" clip-path="url(#11598320ad)"><path style=" stroke:none;fill-rule:nonzero;fill:#8ebb54;fill-opacity:1;" d="M 144.714844 142.246094 C 144.445312 142.316406 144.171875 142.332031 143.894531 142.296875 C 143.613281 142.257812 143.355469 142.171875 143.113281 142.03125 C 142.871094 141.890625 142.664062 141.707031 142.492188 141.484375 C 142.324219 141.261719 142.203125 141.015625 142.128906 140.742188 C 142.058594 140.472656 142.039062 140.199219 142.078125 139.921875 C 142.113281 139.640625 142.203125 139.382812 142.34375 139.140625 C 142.484375 138.898438 142.667969 138.691406 142.890625 138.519531 C 143.113281 138.351562 143.359375 138.230469 143.632812 138.15625 C 143.902344 138.085938 144.175781 138.070312 144.453125 138.105469 C 144.730469 138.144531 144.992188 138.230469 145.234375 138.371094 C 145.476562 138.511719 145.683594 138.695312 145.855469 138.917969 C 146.023438 139.140625 146.144531 139.386719 146.21875 139.660156 C 146.289062 139.929688 146.304688 140.203125 146.269531 140.480469 C 146.230469 140.761719 146.144531 141.019531 146.003906 141.261719 C 145.859375 141.503906 145.679688 141.710938 145.457031 141.882812 C 145.234375 142.050781 144.988281 142.171875 144.714844 142.246094 Z M 144.714844 142.246094 "/></g></g></g><g clip-rule="nonzero" clip-path="url(#0f33d7555e)"><g clip-rule="nonzero" clip-path="url(#3f88bde434)"><g clip-rule="nonzero" clip-path="url(#61b9cd6698)"><path style=" stroke:none;fill-rule:nonzero;fill:#8ebb54;fill-opacity:1;" d="M 123.324219 119.789062 C 123.054688 119.859375 122.78125 119.878906 122.503906 119.839844 C 122.226562 119.804688 121.964844 119.714844 121.722656 119.574219 C 121.480469 119.433594 121.273438 119.25 121.101562 119.027344 C 120.933594 118.804688 120.8125 118.558594 120.738281 118.289062 C 120.667969 118.015625 120.652344 117.742188 120.6875 117.464844 C 120.726562 117.1875 120.8125 116.925781 120.953125 116.683594 C 121.09375 116.441406 121.277344 116.234375 121.5 116.0625 C 121.722656 115.894531 121.96875 115.773438 122.242188 115.703125 C 122.511719 115.628906 122.785156 115.613281 123.0625 115.648438 C 123.34375 115.6875 123.601562 115.773438 123.84375 115.917969 C 124.085938 116.058594 124.292969 116.238281 124.464844 116.460938 C 124.632812 116.683594 124.753906 116.929688 124.828125 117.203125 C 124.898438 117.472656 124.917969 117.746094 124.878906 118.027344 C 124.839844 118.304688 124.753906 118.5625 124.613281 118.804688 C 124.472656 119.046875 124.289062 119.253906 124.066406 119.425781 C 123.84375 119.59375 123.597656 119.714844 123.324219 119.789062 Z M 123.324219 119.789062 "/></g></g></g><g clip-rule="nonzero" clip-path="url(#4ed2685365)"><g clip-rule="nonzero" clip-path="url(#4c5a4f3ad5)"><g clip-rule="nonzero" clip-path="url(#ce7222c2f8)"><path style=" stroke:none;fill-rule:nonzero;fill:#8ebb54;fill-opacity:1;" d="M 147.3125 114.972656 C 147.042969 115.042969 146.765625 115.0625 146.488281 115.023438 C 146.210938 114.988281 145.949219 114.898438 145.707031 114.757812 C 145.464844 114.617188 145.261719 114.433594 145.089844 114.210938 C 144.917969 113.988281 144.796875 113.742188 144.726562 113.472656 C 144.65625 113.199219 144.636719 112.925781 144.675781 112.648438 C 144.710938 112.371094 144.800781 112.109375 144.941406 111.867188 C 145.082031 111.625 145.265625 111.417969 145.488281 111.25 C 145.710938 111.078125 145.957031 110.957031 146.226562 110.886719 C 146.5 110.8125 146.773438 110.796875 147.050781 110.832031 C 147.328125 110.871094 147.589844 110.960938 147.832031 111.101562 C 148.074219 111.242188 148.28125 111.421875 148.449219 111.644531 C 148.621094 111.867188 148.742188 112.113281 148.8125 112.386719 C 148.886719 112.65625 148.902344 112.929688 148.867188 113.210938 C 148.828125 113.488281 148.738281 113.746094 148.597656 113.988281 C 148.457031 114.234375 148.277344 114.4375 148.054688 114.609375 C 147.832031 114.777344 147.582031 114.898438 147.3125 114.972656 Z M 147.3125 114.972656 "/></g></g></g><g clip-rule="nonzero" clip-path="url(#1d1c8f6b8d)"><g clip-rule="nonzero" clip-path="url(#4be019ed4a)"><g clip-rule="nonzero" clip-path="url(#247b835cd1)"><path style=" stroke:none;fill-rule:nonzero;fill:#09694f;fill-opacity:1;" d="M 160.679688 127.210938 C 160.410156 127.285156 160.132812 127.300781 159.855469 127.265625 C 159.578125 127.226562 159.316406 127.136719 159.074219 126.996094 C 158.832031 126.855469 158.628906 126.675781 158.457031 126.453125 C 158.285156 126.230469 158.164062 125.980469 158.09375 125.710938 C 158.023438 125.441406 158.003906 125.164062 158.042969 124.886719 C 158.078125 124.609375 158.167969 124.351562 158.308594 124.105469 C 158.449219 123.863281 158.632812 123.660156 158.855469 123.488281 C 159.078125 123.316406 159.324219 123.195312 159.59375 123.125 C 159.867188 123.054688 160.140625 123.035156 160.417969 123.074219 C 160.695312 123.109375 160.957031 123.199219 161.199219 123.339844 C 161.441406 123.480469 161.648438 123.664062 161.816406 123.886719 C 161.988281 124.109375 162.109375 124.355469 162.179688 124.625 C 162.253906 124.898438 162.269531 125.171875 162.234375 125.449219 C 162.195312 125.726562 162.105469 125.988281 161.964844 126.230469 C 161.824219 126.472656 161.644531 126.679688 161.421875 126.847656 C 161.199219 127.019531 160.949219 127.140625 160.679688 127.210938 Z M 160.679688 127.210938 "/></g></g></g><g clip-rule="nonzero" clip-path="url(#fa9e0c6553)"><g clip-rule="nonzero" clip-path="url(#0809c774eb)"><g clip-rule="nonzero" clip-path="url(#fc7cba7427)"><path style=" stroke:none;fill-rule:nonzero;fill:#09694f;fill-opacity:1;" d="M 134.855469 128.027344 C 134.585938 128.101562 134.308594 128.117188 134.03125 128.082031 C 133.753906 128.042969 133.492188 127.953125 133.25 127.8125 C 133.007812 127.671875 132.800781 127.492188 132.632812 127.269531 C 132.460938 127.046875 132.339844 126.796875 132.269531 126.527344 C 132.195312 126.257812 132.179688 125.980469 132.21875 125.703125 C 132.253906 125.425781 132.34375 125.164062 132.484375 124.921875 C 132.625 124.679688 132.804688 124.472656 133.03125 124.304688 C 133.253906 124.132812 133.5 124.011719 133.769531 123.941406 C 134.042969 123.871094 134.316406 123.851562 134.59375 123.890625 C 134.871094 123.925781 135.132812 124.015625 135.375 124.15625 C 135.617188 124.296875 135.824219 124.480469 135.992188 124.703125 C 136.164062 124.925781 136.285156 125.171875 136.355469 125.441406 C 136.429688 125.714844 136.445312 125.988281 136.410156 126.265625 C 136.371094 126.542969 136.28125 126.804688 136.140625 127.046875 C 136 127.289062 135.820312 127.496094 135.597656 127.664062 C 135.375 127.835938 135.125 127.957031 134.855469 128.027344 Z M 134.855469 128.027344 "/></g></g></g><g clip-rule="nonzero" clip-path="url(#58c5724205)"><g clip-rule="nonzero" clip-path="url(#d2d0f9e04c)"><g clip-rule="nonzero" clip-path="url(#7837b358c8)"><path style=" stroke:none;fill-rule:nonzero;fill:#09694f;fill-opacity:1;" d="M 120.121094 145.699219 C 119.753906 145.796875 119.378906 145.855469 118.996094 145.878906 C 118.617188 145.90625 118.238281 145.890625 117.859375 145.839844 C 117.480469 145.789062 117.109375 145.703125 116.75 145.578125 C 116.386719 145.457031 116.042969 145.296875 115.710938 145.105469 C 115.382812 144.914062 115.074219 144.691406 114.789062 144.441406 C 114.5 144.1875 114.242188 143.910156 114.011719 143.605469 C 113.777344 143.304688 113.578125 142.980469 113.410156 142.636719 C 113.242188 142.296875 113.109375 141.9375 113.011719 141.570312 C 112.914062 141.203125 112.851562 140.828125 112.828125 140.445312 C 112.804688 140.0625 112.816406 139.683594 112.867188 139.304688 C 112.917969 138.929688 113.007812 138.558594 113.128906 138.195312 C 113.253906 137.835938 113.410156 137.492188 113.601562 137.160156 C 113.792969 136.828125 114.015625 136.523438 114.269531 136.234375 C 114.519531 135.949219 114.800781 135.691406 115.101562 135.457031 C 115.40625 135.226562 115.730469 135.027344 116.070312 134.859375 C 116.414062 134.691406 116.769531 134.558594 117.140625 134.460938 C 117.507812 134.363281 117.882812 134.300781 118.265625 134.277344 C 118.644531 134.253906 119.023438 134.265625 119.402344 134.316406 C 119.78125 134.367188 120.152344 134.453125 120.511719 134.578125 C 120.875 134.703125 121.21875 134.859375 121.550781 135.050781 C 121.878906 135.242188 122.1875 135.464844 122.472656 135.714844 C 122.761719 135.96875 123.019531 136.246094 123.25 136.550781 C 123.484375 136.851562 123.683594 137.175781 123.851562 137.519531 C 124.019531 137.863281 124.152344 138.21875 124.25 138.585938 C 124.347656 138.957031 124.410156 139.332031 124.433594 139.710938 C 124.457031 140.09375 124.445312 140.472656 124.394531 140.851562 C 124.34375 141.230469 124.253906 141.597656 124.132812 141.960938 C 124.007812 142.320312 123.851562 142.667969 123.660156 142.996094 C 123.46875 143.328125 123.246094 143.636719 122.992188 143.921875 C 122.742188 144.207031 122.460938 144.46875 122.160156 144.699219 C 121.855469 144.929688 121.53125 145.128906 121.191406 145.296875 C 120.847656 145.464844 120.492188 145.597656 120.121094 145.699219 Z M 120.121094 145.699219 "/></g></g></g><g clip-rule="nonzero" clip-path="url(#7dedaeaafa)"><g clip-rule="nonzero" clip-path="url(#a4272b94eb)"><g clip-rule="nonzero" clip-path="url(#920466c2da)"><path style=" stroke:none;fill-rule:nonzero;fill:#5d9f41;fill-opacity:1;" d="M 128.085938 159.277344 C 127.632812 159.394531 127.171875 159.472656 126.703125 159.5 C 126.234375 159.53125 125.765625 159.515625 125.300781 159.453125 C 124.835938 159.390625 124.378906 159.28125 123.933594 159.128906 C 123.492188 158.976562 123.066406 158.785156 122.660156 158.546875 C 122.253906 158.3125 121.875 158.039062 121.519531 157.730469 C 121.167969 157.417969 120.847656 157.078125 120.566406 156.703125 C 120.28125 156.328125 120.035156 155.933594 119.828125 155.511719 C 119.621094 155.089844 119.457031 154.652344 119.335938 154.195312 C 119.214844 153.742188 119.140625 153.28125 119.109375 152.8125 C 119.082031 152.34375 119.097656 151.875 119.160156 151.410156 C 119.222656 150.945312 119.328125 150.492188 119.480469 150.046875 C 119.632812 149.601562 119.828125 149.175781 120.0625 148.769531 C 120.296875 148.363281 120.570312 147.984375 120.882812 147.632812 C 121.191406 147.28125 121.535156 146.960938 121.90625 146.675781 C 122.28125 146.390625 122.679688 146.144531 123.101562 145.9375 C 123.523438 145.730469 123.960938 145.566406 124.414062 145.445312 C 124.867188 145.328125 125.328125 145.25 125.796875 145.222656 C 126.265625 145.191406 126.734375 145.207031 127.199219 145.269531 C 127.664062 145.332031 128.121094 145.441406 128.566406 145.59375 C 129.007812 145.746094 129.433594 145.9375 129.839844 146.175781 C 130.246094 146.410156 130.628906 146.683594 130.980469 146.992188 C 131.332031 147.304688 131.652344 147.644531 131.9375 148.019531 C 132.222656 148.394531 132.46875 148.789062 132.671875 149.210938 C 132.878906 149.632812 133.042969 150.070312 133.164062 150.527344 C 133.285156 150.980469 133.359375 151.441406 133.390625 151.910156 C 133.417969 152.378906 133.402344 152.847656 133.339844 153.3125 C 133.277344 153.777344 133.171875 154.230469 133.019531 154.675781 C 132.867188 155.121094 132.671875 155.546875 132.4375 155.953125 C 132.203125 156.359375 131.929688 156.738281 131.617188 157.089844 C 131.308594 157.441406 130.964844 157.761719 130.59375 158.046875 C 130.21875 158.332031 129.820312 158.578125 129.398438 158.785156 C 128.976562 158.992188 128.539062 159.15625 128.085938 159.277344 Z M 128.085938 159.277344 "/></g></g></g><g clip-rule="nonzero" clip-path="url(#cc76c19a20)"><g clip-rule="nonzero" clip-path="url(#37e56bbccd)"><g clip-rule="nonzero" clip-path="url(#5ec8127a69)"><path style=" stroke:none;fill-rule:nonzero;fill:#5d9f41;fill-opacity:1;" d="M 113.664062 155.257812 C 113.351562 155.34375 113.03125 155.394531 112.703125 155.414062 C 112.378906 155.4375 112.054688 155.425781 111.730469 155.382812 C 111.40625 155.339844 111.09375 155.261719 110.785156 155.15625 C 110.476562 155.050781 110.179688 154.917969 109.898438 154.753906 C 109.613281 154.589844 109.351562 154.402344 109.105469 154.183594 C 108.863281 153.96875 108.640625 153.730469 108.441406 153.472656 C 108.246094 153.214844 108.074219 152.9375 107.929688 152.644531 C 107.785156 152.351562 107.671875 152.046875 107.589844 151.730469 C 107.507812 151.417969 107.453125 151.097656 107.433594 150.769531 C 107.414062 150.445312 107.425781 150.121094 107.46875 149.796875 C 107.511719 149.472656 107.585938 149.160156 107.691406 148.851562 C 107.796875 148.542969 107.929688 148.246094 108.09375 147.964844 C 108.257812 147.679688 108.449219 147.417969 108.664062 147.171875 C 108.878906 146.929688 109.117188 146.707031 109.375 146.507812 C 109.636719 146.3125 109.910156 146.140625 110.203125 145.996094 C 110.496094 145.851562 110.800781 145.738281 111.117188 145.65625 C 111.433594 145.574219 111.753906 145.519531 112.078125 145.5 C 112.402344 145.480469 112.726562 145.492188 113.050781 145.535156 C 113.375 145.578125 113.691406 145.652344 114 145.757812 C 114.308594 145.863281 114.601562 145.996094 114.886719 146.160156 C 115.167969 146.324219 115.429688 146.515625 115.675781 146.730469 C 115.921875 146.945312 116.140625 147.183594 116.339844 147.441406 C 116.539062 147.703125 116.707031 147.976562 116.851562 148.269531 C 116.996094 148.5625 117.109375 148.867188 117.191406 149.183594 C 117.277344 149.5 117.328125 149.820312 117.347656 150.144531 C 117.371094 150.46875 117.359375 150.792969 117.316406 151.117188 C 117.273438 151.441406 117.199219 151.757812 117.089844 152.066406 C 116.984375 152.375 116.851562 152.667969 116.6875 152.953125 C 116.523438 153.234375 116.335938 153.496094 116.117188 153.742188 C 115.902344 153.988281 115.664062 154.207031 115.40625 154.40625 C 115.148438 154.605469 114.871094 154.773438 114.578125 154.917969 C 114.285156 155.0625 113.980469 155.175781 113.664062 155.257812 Z M 113.664062 155.257812 "/></g></g></g><g clip-rule="nonzero" clip-path="url(#7087ec3808)"><g clip-rule="nonzero" clip-path="url(#188883bb92)"><g clip-rule="nonzero" clip-path="url(#cc25a0046f)"><path style=" stroke:none;fill-rule:nonzero;fill:#09694f;fill-opacity:1;" d="M 95.886719 150.492188 C 95.617188 150.566406 95.34375 150.582031 95.066406 150.546875 C 94.789062 150.507812 94.527344 150.417969 94.285156 150.277344 C 94.042969 150.136719 93.835938 149.957031 93.664062 149.734375 C 93.496094 149.511719 93.375 149.265625 93.300781 148.992188 C 93.230469 148.722656 93.214844 148.449219 93.25 148.167969 C 93.289062 147.890625 93.375 147.632812 93.515625 147.390625 C 93.65625 147.148438 93.839844 146.941406 94.0625 146.769531 C 94.285156 146.601562 94.53125 146.480469 94.804688 146.40625 C 95.074219 146.335938 95.347656 146.316406 95.625 146.355469 C 95.90625 146.390625 96.164062 146.480469 96.40625 146.621094 C 96.648438 146.761719 96.855469 146.945312 97.027344 147.167969 C 97.195312 147.390625 97.316406 147.636719 97.390625 147.90625 C 97.460938 148.179688 97.480469 148.453125 97.441406 148.730469 C 97.40625 149.007812 97.316406 149.269531 97.175781 149.511719 C 97.035156 149.753906 96.851562 149.960938 96.628906 150.128906 C 96.40625 150.300781 96.160156 150.421875 95.886719 150.492188 Z M 95.886719 150.492188 "/></g></g></g><g clip-rule="nonzero" clip-path="url(#f11e6e0a4d)"><g clip-rule="nonzero" clip-path="url(#ffd0c1e090)"><g clip-rule="nonzero" clip-path="url(#adba73911b)"><path style=" stroke:none;fill-rule:nonzero;fill:#09694f;fill-opacity:1;" d="M 156.613281 85.667969 C 156.339844 85.742188 156.066406 85.757812 155.789062 85.722656 C 155.511719 85.683594 155.25 85.59375 155.007812 85.453125 C 154.765625 85.3125 154.558594 85.132812 154.390625 84.910156 C 154.21875 84.6875 154.097656 84.441406 154.027344 84.167969 C 153.953125 83.898438 153.9375 83.625 153.972656 83.34375 C 154.011719 83.066406 154.101562 82.808594 154.242188 82.566406 C 154.382812 82.320312 154.5625 82.117188 154.785156 81.945312 C 155.007812 81.777344 155.257812 81.65625 155.527344 81.582031 C 155.796875 81.511719 156.074219 81.492188 156.351562 81.53125 C 156.628906 81.566406 156.890625 81.65625 157.132812 81.796875 C 157.375 81.9375 157.582031 82.121094 157.75 82.34375 C 157.921875 82.566406 158.042969 82.8125 158.113281 83.082031 C 158.183594 83.355469 158.203125 83.628906 158.164062 83.90625 C 158.128906 84.183594 158.039062 84.445312 157.898438 84.6875 C 157.757812 84.929688 157.574219 85.136719 157.351562 85.304688 C 157.128906 85.476562 156.882812 85.597656 156.613281 85.667969 Z M 156.613281 85.667969 "/></g></g></g><g clip-rule="nonzero" clip-path="url(#3f1662d17d)"><g clip-rule="nonzero" clip-path="url(#0ddd50367a)"><g clip-rule="nonzero" clip-path="url(#7fe3d754f3)"><path style=" stroke:none;fill-rule:nonzero;fill:#09694f;fill-opacity:1;" d="M 139.855469 99.371094 C 139.582031 99.441406 139.308594 99.457031 139.03125 99.421875 C 138.753906 99.382812 138.492188 99.296875 138.25 99.15625 C 138.007812 99.015625 137.800781 98.832031 137.632812 98.609375 C 137.460938 98.386719 137.339844 98.140625 137.269531 97.867188 C 137.195312 97.597656 137.179688 97.324219 137.214844 97.046875 C 137.253906 96.765625 137.34375 96.507812 137.484375 96.265625 C 137.625 96.023438 137.804688 95.816406 138.027344 95.644531 C 138.25 95.476562 138.5 95.355469 138.769531 95.28125 C 139.039062 95.210938 139.316406 95.191406 139.59375 95.230469 C 139.871094 95.265625 140.132812 95.355469 140.375 95.496094 C 140.617188 95.636719 140.824219 95.820312 140.992188 96.042969 C 141.164062 96.265625 141.285156 96.511719 141.355469 96.785156 C 141.425781 97.054688 141.445312 97.328125 141.40625 97.605469 C 141.371094 97.882812 141.28125 98.144531 141.140625 98.386719 C 141 98.628906 140.816406 98.835938 140.59375 99.007812 C 140.371094 99.175781 140.125 99.296875 139.855469 99.371094 Z M 139.855469 99.371094 "/></g></g></g><g clip-rule="nonzero" clip-path="url(#3031abd17d)"><g clip-rule="nonzero" clip-path="url(#da916024b9)"><g clip-rule="nonzero" clip-path="url(#402e5a2417)"><path style=" stroke:none;fill-rule:nonzero;fill:#5d9f41;fill-opacity:1;" d="M 133.792969 43.730469 C 132.371094 45.476562 129.808594 45.738281 128.0625 44.320312 L 115.261719 33.90625 C 112.640625 41.03125 113.632812 48.8125 114.773438 58.0625 C 115.773438 65.921875 116.800781 74.078125 115.691406 82.914062 C 114.394531 93.257812 110.28125 102.515625 103.183594 111.28125 C 96.085938 120.011719 87.816406 125.925781 77.957031 129.300781 C 69.496094 132.191406 61.335938 132.839844 53.4375 133.460938 C 44.183594 134.183594 36.359375 134.796875 29.882812 138.855469 L 42.6875 149.269531 C 44.433594 150.6875 44.695312 153.25 43.277344 154.996094 C 41.855469 156.742188 39.292969 157.003906 37.546875 155.585938 L 23.707031 144.324219 C 21.472656 147.070312 17.441406 147.484375 14.699219 145.253906 C 11.957031 143.019531 11.539062 138.988281 13.773438 136.246094 C 24.660156 122.859375 38.789062 121.75 52.429688 120.691406 C 59.835938 120.121094 67.011719 119.535156 73.929688 117.148438 L 48.160156 96.183594 C 46.414062 94.761719 46.148438 92.199219 47.570312 90.453125 C 48.988281 88.710938 51.550781 88.445312 53.296875 89.867188 L 82.058594 113.265625 C 84.925781 111.484375 87.769531 109.171875 90.519531 106.261719 L 57.226562 79.179688 C 55.480469 77.757812 55.21875 75.195312 56.636719 73.449219 C 58.058594 71.703125 60.621094 71.441406 62.367188 72.859375 L 95.660156 99.945312 C 97.949219 96.660156 99.597656 93.445312 100.792969 90.238281 L 72.03125 66.839844 C 70.285156 65.417969 70.019531 62.855469 71.441406 61.109375 C 72.859375 59.363281 75.421875 59.101562 77.167969 60.523438 L 102.9375 81.484375 C 103.867188 74.230469 102.980469 67.085938 102.035156 59.714844 C 100.296875 46.144531 98.507812 32.085938 109.394531 18.703125 C 111.625 15.957031 115.65625 15.542969 118.402344 17.777344 C 121.144531 20.007812 121.558594 24.039062 119.328125 26.78125 L 133.199219 37.964844 C 134.945312 39.382812 135.207031 41.945312 133.792969 43.730469 Z M 133.792969 43.730469 "/></g></g></g><g clip-rule="nonzero" clip-path="url(#070266f466)"><g clip-rule="nonzero" clip-path="url(#e236a204a0)"><g clip-rule="nonzero" clip-path="url(#58ada5e11b)"><path style=" stroke:none;fill-rule:nonzero;fill:#8ebb54;fill-opacity:1;" d="M 141.308594 44.59375 C 130.417969 57.976562 116.289062 59.089844 102.648438 60.148438 C 88.066406 61.304688 74.277344 62.378906 61.867188 77.632812 C 49.457031 92.886719 51.210938 106.609375 53.046875 121.121094 C 54.785156 134.691406 56.574219 148.753906 45.6875 162.136719 C 43.453125 164.878906 39.421875 165.296875 36.679688 163.0625 C 33.933594 160.832031 33.519531 156.800781 35.75 154.054688 C 43.191406 144.914062 41.917969 135.140625 40.339844 122.734375 C 39.339844 114.875 38.3125 106.71875 39.421875 97.882812 C 40.71875 87.542969 44.832031 78.28125 51.929688 69.515625 C 59.023438 60.75 67.296875 54.871094 77.15625 51.496094 C 85.617188 48.609375 93.777344 47.957031 101.675781 47.335938 C 114.140625 46.359375 123.964844 45.578125 131.40625 36.472656 C 133.640625 33.726562 137.671875 33.3125 140.414062 35.546875 C 143.125 37.820312 143.539062 41.851562 141.308594 44.59375 Z M 141.308594 44.59375 "/></g></g></g><g clip-rule="nonzero" clip-path="url(#17f942a6c7)"><g clip-rule="nonzero" clip-path="url(#2bcb49c46b)"><g clip-rule="nonzero" clip-path="url(#22e3d2a053)"><path style=" stroke:none;fill-rule:nonzero;fill:#09694f;fill-opacity:1;" d="M 125.238281 42.019531 C 127.457031 40.648438 129.519531 38.835938 131.410156 36.507812 L 133.199219 37.964844 C 134.945312 39.382812 135.207031 41.945312 133.789062 43.691406 C 132.367188 45.4375 129.804688 45.703125 128.058594 44.28125 Z M 39.894531 146.925781 C 39.003906 149.378906 37.648438 151.765625 35.753906 154.09375 L 37.542969 155.546875 C 39.289062 156.96875 41.851562 156.703125 43.273438 154.957031 C 44.691406 153.214844 44.429688 150.648438 42.683594 149.230469 Z M 53.328125 89.785156 C 51.582031 88.367188 49.019531 88.628906 47.597656 90.375 C 46.179688 92.121094 46.441406 94.683594 48.1875 96.105469 L 52.179688 99.351562 C 52.566406 96.453125 53.21875 93.53125 54.324219 90.597656 Z M 62.398438 72.820312 C 60.652344 71.398438 58.089844 71.664062 56.671875 73.40625 C 55.25 75.152344 55.515625 77.714844 57.261719 79.136719 L 59.421875 80.894531 C 60.1875 79.824219 60.988281 78.714844 61.867188 77.632812 C 62.746094 76.554688 63.667969 75.507812 64.5625 74.578125 Z M 77.203125 60.480469 C 75.457031 59.058594 72.894531 59.324219 71.472656 61.070312 C 70.054688 62.816406 70.316406 65.378906 72.0625 66.796875 L 73.019531 67.574219 C 75.703125 65.890625 78.394531 64.660156 81.152344 63.691406 Z M 77.203125 60.480469 "/></g></g></g><g style="fill:#8ebb54;fill-opacity:1;"><g transform="translate(202.714561, 51.635778)"><path style="stroke:none" d="M 12.625 -14.015625 L 22.515625 -14.015625 L 22.515625 -1.078125 C 21.203125 -0.640625 19.832031 -0.289062 18.40625 -0.03125 C 16.988281 0.21875 15.394531 0.34375 13.625 0.34375 C 9.90625 0.34375 7.039062 -0.75 5.03125 -2.9375 C 3.03125 -5.125 2.03125 -8.316406 2.03125 -12.515625 C 2.03125 -15.117188 2.53125 -17.375 3.53125 -19.28125 C 4.53125 -21.195312 6.003906 -22.679688 7.953125 -23.734375 C 9.898438 -24.785156 12.269531 -25.3125 15.0625 -25.3125 C 16.394531 -25.3125 17.703125 -25.171875 18.984375 -24.890625 C 20.265625 -24.609375 21.425781 -24.234375 22.46875 -23.765625 L 20.734375 -19.53125 C 19.960938 -19.9375 19.085938 -20.265625 18.109375 -20.515625 C 17.128906 -20.773438 16.101562 -20.90625 15.03125 -20.90625 C 13.488281 -20.90625 12.148438 -20.554688 11.015625 -19.859375 C 9.890625 -19.160156 9.019531 -18.164062 8.40625 -16.875 C 7.789062 -15.59375 7.484375 -14.101562 7.484375 -12.40625 C 7.484375 -10.78125 7.703125 -9.335938 8.140625 -8.078125 C 8.585938 -6.816406 9.285156 -5.828125 10.234375 -5.109375 C 11.191406 -4.398438 12.441406 -4.046875 13.984375 -4.046875 C 14.722656 -4.046875 15.347656 -4.082031 15.859375 -4.15625 C 16.378906 -4.226562 16.875 -4.3125 17.34375 -4.40625 L 17.34375 -9.609375 L 12.625 -9.609375 Z M 12.625 -14.015625 "/></g></g><g style="fill:#8ebb54;fill-opacity:1;"><g transform="translate(228.01882, 51.635778)"><path style="stroke:none" d="M 13.734375 -20.90625 C 11.710938 -20.90625 10.164062 -20.144531 9.09375 -18.625 C 8.019531 -17.113281 7.484375 -15.039062 7.484375 -12.40625 C 7.484375 -9.75 7.976562 -7.691406 8.96875 -6.234375 C 9.957031 -4.773438 11.546875 -4.046875 13.734375 -4.046875 C 14.734375 -4.046875 15.742188 -4.160156 16.765625 -4.390625 C 17.796875 -4.628906 18.90625 -4.957031 20.09375 -5.375 L 20.09375 -0.9375 C 19 -0.5 17.914062 -0.175781 16.84375 0.03125 C 15.769531 0.238281 14.570312 0.34375 13.25 0.34375 C 10.664062 0.34375 8.546875 -0.179688 6.890625 -1.234375 C 5.234375 -2.296875 4.007812 -3.785156 3.21875 -5.703125 C 2.425781 -7.628906 2.03125 -9.875 2.03125 -12.4375 C 2.03125 -14.957031 2.484375 -17.179688 3.390625 -19.109375 C 4.296875 -21.046875 5.617188 -22.5625 7.359375 -23.65625 C 9.097656 -24.757812 11.222656 -25.3125 13.734375 -25.3125 C 14.972656 -25.3125 16.210938 -25.148438 17.453125 -24.828125 C 18.703125 -24.515625 19.898438 -24.09375 21.046875 -23.5625 L 19.328125 -19.265625 C 18.398438 -19.703125 17.460938 -20.082031 16.515625 -20.40625 C 15.566406 -20.738281 14.640625 -20.90625 13.734375 -20.90625 Z M 13.734375 -20.90625 "/></g></g><g style="fill:#8ebb54;fill-opacity:1;"><g transform="translate(250.282375, 51.635778)"><path style="stroke:none" d="M 1.046875 -7.234375 L 1.046875 -11.5 L 10.203125 -11.5 L 10.203125 -7.234375 Z M 1.046875 -7.234375 "/></g></g><g style="fill:#8ebb54;fill-opacity:1;"><g transform="translate(261.536477, 51.635778)"><path style="stroke:none" d="M 18.421875 0 L 16.609375 -5.9375 L 7.515625 -5.9375 L 5.703125 0 L 0 0 L 8.8125 -25.0625 L 15.28125 -25.0625 L 24.125 0 Z M 15.34375 -10.375 L 13.53125 -16.1875 C 13.414062 -16.582031 13.265625 -17.082031 13.078125 -17.6875 C 12.890625 -18.289062 12.703125 -18.90625 12.515625 -19.53125 C 12.328125 -20.164062 12.175781 -20.71875 12.0625 -21.1875 C 11.945312 -20.71875 11.789062 -20.140625 11.59375 -19.453125 C 11.394531 -18.765625 11.207031 -18.109375 11.03125 -17.484375 C 10.851562 -16.867188 10.71875 -16.4375 10.625 -16.1875 L 8.84375 -10.375 Z M 15.34375 -10.375 "/></g></g><g style="fill:#8ebb54;fill-opacity:1;"><g transform="translate(285.652419, 51.635778)"><path style="stroke:none" d="M 12.484375 0 L 1.125 0 L 1.125 -3 L 4.15625 -4.40625 L 4.15625 -20.546875 L 1.125 -21.953125 L 1.125 -24.953125 L 12.484375 -24.953125 L 12.484375 -21.953125 L 9.4375 -20.546875 L 9.4375 -4.40625 L 12.484375 -3 Z M 12.484375 0 "/></g></g><g style="fill:#8ebb54;fill-opacity:1;"><g transform="translate(210.678025, 70.263672)"><path style="stroke:none" d="M 4.46875 -4.140625 L 7.1875 -4.140625 L 7.1875 -0.296875 C 6.757812 -0.160156 6.328125 -0.0625 5.890625 0 C 5.460938 0.0703125 4.972656 0.109375 4.421875 0.109375 C 3.609375 0.109375 2.921875 -0.0507812 2.359375 -0.375 C 1.804688 -0.707031 1.382812 -1.175781 1.09375 -1.78125 C 0.8125 -2.382812 0.671875 -3.097656 0.671875 -3.921875 C 0.671875 -4.734375 0.828125 -5.441406 1.140625 -6.046875 C 1.460938 -6.648438 1.925781 -7.117188 2.53125 -7.453125 C 3.144531 -7.785156 3.878906 -7.953125 4.734375 -7.953125 C 5.171875 -7.953125 5.582031 -7.910156 5.96875 -7.828125 C 6.363281 -7.753906 6.734375 -7.640625 7.078125 -7.484375 L 6.703125 -6.640625 C 6.421875 -6.753906 6.101562 -6.851562 5.75 -6.9375 C 5.40625 -7.03125 5.046875 -7.078125 4.671875 -7.078125 C 3.734375 -7.078125 3.003906 -6.789062 2.484375 -6.21875 C 1.960938 -5.65625 1.703125 -4.890625 1.703125 -3.921875 C 1.703125 -3.296875 1.800781 -2.742188 2 -2.265625 C 2.207031 -1.785156 2.523438 -1.410156 2.953125 -1.140625 C 3.390625 -0.878906 3.957031 -0.75 4.65625 -0.75 C 5 -0.75 5.289062 -0.765625 5.53125 -0.796875 C 5.78125 -0.835938 6 -0.882812 6.1875 -0.9375 L 6.1875 -3.265625 L 4.46875 -3.265625 Z M 4.46875 -4.140625 "/></g></g><g style="fill:#8ebb54;fill-opacity:1;"><g transform="translate(218.670881, 70.263672)"><path style="stroke:none" d="M 3.203125 -6 C 3.703125 -6 4.132812 -5.890625 4.5 -5.671875 C 4.863281 -5.453125 5.144531 -5.140625 5.34375 -4.734375 C 5.539062 -4.335938 5.640625 -3.875 5.640625 -3.34375 L 5.640625 -2.75 L 1.609375 -2.75 C 1.617188 -2.082031 1.785156 -1.578125 2.109375 -1.234375 C 2.441406 -0.890625 2.898438 -0.71875 3.484375 -0.71875 C 3.859375 -0.71875 4.1875 -0.75 4.46875 -0.8125 C 4.757812 -0.882812 5.0625 -0.988281 5.375 -1.125 L 5.375 -0.28125 C 5.070312 -0.144531 4.773438 -0.046875 4.484375 0.015625 C 4.191406 0.078125 3.84375 0.109375 3.4375 0.109375 C 2.875 0.109375 2.378906 -0.00390625 1.953125 -0.234375 C 1.523438 -0.460938 1.191406 -0.796875 0.953125 -1.234375 C 0.722656 -1.679688 0.609375 -2.238281 0.609375 -2.90625 C 0.609375 -3.539062 0.710938 -4.085938 0.921875 -4.546875 C 1.140625 -5.015625 1.441406 -5.375 1.828125 -5.625 C 2.222656 -5.875 2.679688 -6 3.203125 -6 Z M 3.203125 -5.203125 C 2.734375 -5.203125 2.363281 -5.050781 2.09375 -4.75 C 1.832031 -4.457031 1.675781 -4.050781 1.625 -3.53125 L 4.625 -3.53125 C 4.613281 -4.019531 4.492188 -4.421875 4.265625 -4.734375 C 4.046875 -5.046875 3.691406 -5.203125 3.203125 -5.203125 Z M 3.203125 -5.203125 "/></g></g><g style="fill:#8ebb54;fill-opacity:1;"><g transform="translate(224.863155, 70.263672)"><path style="stroke:none" d="M 3.765625 -6 C 4.472656 -6 5.003906 -5.828125 5.359375 -5.484375 C 5.722656 -5.140625 5.90625 -4.585938 5.90625 -3.828125 L 5.90625 0 L 4.9375 0 L 4.9375 -3.765625 C 4.9375 -4.710938 4.5 -5.1875 3.625 -5.1875 C 2.96875 -5.1875 2.515625 -5.003906 2.265625 -4.640625 C 2.023438 -4.273438 1.90625 -3.742188 1.90625 -3.046875 L 1.90625 0 L 0.9375 0 L 0.9375 -5.890625 L 1.71875 -5.890625 L 1.859375 -5.078125 L 1.90625 -5.078125 C 2.101562 -5.390625 2.367188 -5.617188 2.703125 -5.765625 C 3.035156 -5.921875 3.390625 -6 3.765625 -6 Z M 3.765625 -6 "/></g></g><g style="fill:#8ebb54;fill-opacity:1;"><g transform="translate(231.648307, 70.263672)"><path style="stroke:none" d="M 3.203125 -6 C 3.703125 -6 4.132812 -5.890625 4.5 -5.671875 C 4.863281 -5.453125 5.144531 -5.140625 5.34375 -4.734375 C 5.539062 -4.335938 5.640625 -3.875 5.640625 -3.34375 L 5.640625 -2.75 L 1.609375 -2.75 C 1.617188 -2.082031 1.785156 -1.578125 2.109375 -1.234375 C 2.441406 -0.890625 2.898438 -0.71875 3.484375 -0.71875 C 3.859375 -0.71875 4.1875 -0.75 4.46875 -0.8125 C 4.757812 -0.882812 5.0625 -0.988281 5.375 -1.125 L 5.375 -0.28125 C 5.070312 -0.144531 4.773438 -0.046875 4.484375 0.015625 C 4.191406 0.078125 3.84375 0.109375 3.4375 0.109375 C 2.875 0.109375 2.378906 -0.00390625 1.953125 -0.234375 C 1.523438 -0.460938 1.191406 -0.796875 0.953125 -1.234375 C 0.722656 -1.679688 0.609375 -2.238281 0.609375 -2.90625 C 0.609375 -3.539062 0.710938 -4.085938 0.921875 -4.546875 C 1.140625 -5.015625 1.441406 -5.375 1.828125 -5.625 C 2.222656 -5.875 2.679688 -6 3.203125 -6 Z M 3.203125 -5.203125 C 2.734375 -5.203125 2.363281 -5.050781 2.09375 -4.75 C 1.832031 -4.457031 1.675781 -4.050781 1.625 -3.53125 L 4.625 -3.53125 C 4.613281 -4.019531 4.492188 -4.421875 4.265625 -4.734375 C 4.046875 -5.046875 3.691406 -5.203125 3.203125 -5.203125 Z M 3.203125 -5.203125 "/></g></g><g style="fill:#8ebb54;fill-opacity:1;"><g transform="translate(237.840581, 70.263672)"><path style="stroke:none" d="M 2.90625 -0.6875 C 3.050781 -0.6875 3.195312 -0.695312 3.34375 -0.71875 C 3.5 -0.738281 3.625 -0.765625 3.71875 -0.796875 L 3.71875 -0.0625 C 3.613281 -0.0078125 3.46875 0.03125 3.28125 0.0625 C 3.09375 0.09375 2.910156 0.109375 2.734375 0.109375 C 2.429688 0.109375 2.148438 0.0546875 1.890625 -0.046875 C 1.628906 -0.148438 1.414062 -0.332031 1.25 -0.59375 C 1.09375 -0.863281 1.015625 -1.238281 1.015625 -1.71875 L 1.015625 -5.140625 L 0.171875 -5.140625 L 0.171875 -5.609375 L 1.015625 -5.984375 L 1.40625 -7.234375 L 1.984375 -7.234375 L 1.984375 -5.890625 L 3.6875 -5.890625 L 3.6875 -5.140625 L 1.984375 -5.140625 L 1.984375 -1.734375 C 1.984375 -1.378906 2.066406 -1.113281 2.234375 -0.9375 C 2.410156 -0.769531 2.632812 -0.6875 2.90625 -0.6875 Z M 2.90625 -0.6875 "/></g></g><g style="fill:#8ebb54;fill-opacity:1;"><g transform="translate(241.804072, 70.263672)"><path style="stroke:none" d="M 1.421875 -8.09375 C 1.566406 -8.09375 1.695312 -8.039062 1.8125 -7.9375 C 1.925781 -7.84375 1.984375 -7.691406 1.984375 -7.484375 C 1.984375 -7.265625 1.925781 -7.101562 1.8125 -7 C 1.695312 -6.90625 1.566406 -6.859375 1.421875 -6.859375 C 1.265625 -6.859375 1.128906 -6.90625 1.015625 -7 C 0.910156 -7.101562 0.859375 -7.265625 0.859375 -7.484375 C 0.859375 -7.691406 0.910156 -7.84375 1.015625 -7.9375 C 1.128906 -8.039062 1.265625 -8.09375 1.421875 -8.09375 Z M 1.90625 -5.890625 L 1.90625 0 L 0.9375 0 L 0.9375 -5.890625 Z M 1.90625 -5.890625 "/></g></g><g style="fill:#8ebb54;fill-opacity:1;"><g transform="translate(244.636706, 70.263672)"><path style="stroke:none" d="M 3.296875 0.109375 C 2.765625 0.109375 2.296875 0.00390625 1.890625 -0.203125 C 1.492188 -0.421875 1.179688 -0.753906 0.953125 -1.203125 C 0.722656 -1.648438 0.609375 -2.21875 0.609375 -2.90625 C 0.609375 -3.632812 0.722656 -4.222656 0.953125 -4.671875 C 1.191406 -5.128906 1.519531 -5.460938 1.9375 -5.671875 C 2.363281 -5.890625 2.835938 -6 3.359375 -6 C 3.648438 -6 3.9375 -5.96875 4.21875 -5.90625 C 4.5 -5.84375 4.726562 -5.765625 4.90625 -5.671875 L 4.609375 -4.875 C 4.429688 -4.9375 4.222656 -5 3.984375 -5.0625 C 3.753906 -5.125 3.539062 -5.15625 3.34375 -5.15625 C 2.1875 -5.15625 1.609375 -4.410156 1.609375 -2.921875 C 1.609375 -2.210938 1.75 -1.664062 2.03125 -1.28125 C 2.3125 -0.90625 2.726562 -0.71875 3.28125 -0.71875 C 3.59375 -0.71875 3.875 -0.75 4.125 -0.8125 C 4.375 -0.882812 4.601562 -0.96875 4.8125 -1.0625 L 4.8125 -0.203125 C 4.613281 -0.109375 4.394531 -0.0351562 4.15625 0.015625 C 3.914062 0.078125 3.628906 0.109375 3.296875 0.109375 Z M 3.296875 0.109375 "/></g></g><g style="fill:#8ebb54;fill-opacity:1;"><g transform="translate(249.90673, 70.263672)"><path style="stroke:none" d="M 4.765625 -1.625 C 4.765625 -1.050781 4.550781 -0.617188 4.125 -0.328125 C 3.707031 -0.0351562 3.140625 0.109375 2.421875 0.109375 C 2.003906 0.109375 1.644531 0.0703125 1.34375 0 C 1.050781 -0.0625 0.796875 -0.148438 0.578125 -0.265625 L 0.578125 -1.140625 C 0.804688 -1.023438 1.085938 -0.914062 1.421875 -0.8125 C 1.753906 -0.71875 2.09375 -0.671875 2.4375 -0.671875 C 2.925781 -0.671875 3.28125 -0.75 3.5 -0.90625 C 3.71875 -1.0625 3.828125 -1.269531 3.828125 -1.53125 C 3.828125 -1.675781 3.785156 -1.804688 3.703125 -1.921875 C 3.628906 -2.046875 3.488281 -2.164062 3.28125 -2.28125 C 3.070312 -2.394531 2.773438 -2.53125 2.390625 -2.6875 C 2.003906 -2.832031 1.675781 -2.976562 1.40625 -3.125 C 1.132812 -3.269531 0.925781 -3.441406 0.78125 -3.640625 C 0.632812 -3.847656 0.5625 -4.113281 0.5625 -4.4375 C 0.5625 -4.9375 0.765625 -5.320312 1.171875 -5.59375 C 1.578125 -5.863281 2.109375 -6 2.765625 -6 C 3.128906 -6 3.460938 -5.960938 3.765625 -5.890625 C 4.078125 -5.816406 4.367188 -5.722656 4.640625 -5.609375 L 4.3125 -4.828125 C 4.0625 -4.929688 3.800781 -5.019531 3.53125 -5.09375 C 3.257812 -5.164062 2.984375 -5.203125 2.703125 -5.203125 C 2.304688 -5.203125 2.003906 -5.140625 1.796875 -5.015625 C 1.585938 -4.890625 1.484375 -4.71875 1.484375 -4.5 C 1.484375 -4.320312 1.53125 -4.175781 1.625 -4.0625 C 1.71875 -3.957031 1.875 -3.847656 2.09375 -3.734375 C 2.320312 -3.628906 2.625 -3.507812 3 -3.375 C 3.375 -3.226562 3.691406 -3.082031 3.953125 -2.9375 C 4.210938 -2.789062 4.410156 -2.613281 4.546875 -2.40625 C 4.691406 -2.195312 4.765625 -1.9375 4.765625 -1.625 Z M 4.765625 -1.625 "/></g></g><g style="fill:#8ebb54;fill-opacity:1;"><g transform="translate(255.165769, 70.263672)"><path style="stroke:none" d=""/></g></g><g style="fill:#8ebb54;fill-opacity:1;"><g transform="translate(258.896969, 70.263672)"><path style="stroke:none" d="M 4.421875 -7.078125 C 3.578125 -7.078125 2.914062 -6.796875 2.4375 -6.234375 C 1.957031 -5.671875 1.71875 -4.898438 1.71875 -3.921875 C 1.71875 -2.941406 1.941406 -2.171875 2.390625 -1.609375 C 2.835938 -1.046875 3.515625 -0.765625 4.421875 -0.765625 C 4.753906 -0.765625 5.070312 -0.789062 5.375 -0.84375 C 5.6875 -0.90625 5.992188 -0.976562 6.296875 -1.0625 L 6.296875 -0.203125 C 6.003906 -0.0976562 5.703125 -0.0195312 5.390625 0.03125 C 5.078125 0.0820312 4.703125 0.109375 4.265625 0.109375 C 3.472656 0.109375 2.804688 -0.0507812 2.265625 -0.375 C 1.734375 -0.707031 1.332031 -1.175781 1.0625 -1.78125 C 0.800781 -2.394531 0.671875 -3.113281 0.671875 -3.9375 C 0.671875 -4.726562 0.8125 -5.425781 1.09375 -6.03125 C 1.382812 -6.632812 1.8125 -7.101562 2.375 -7.4375 C 2.945312 -7.78125 3.632812 -7.953125 4.4375 -7.953125 C 5.257812 -7.953125 5.984375 -7.796875 6.609375 -7.484375 L 6.203125 -6.65625 C 5.960938 -6.769531 5.691406 -6.867188 5.390625 -6.953125 C 5.097656 -7.035156 4.773438 -7.078125 4.421875 -7.078125 Z M 4.421875 -7.078125 "/></g></g><g style="fill:#8ebb54;fill-opacity:1;"><g transform="translate(265.835828, 70.263672)"><path style="stroke:none" d="M 1.421875 -8.09375 C 1.566406 -8.09375 1.695312 -8.039062 1.8125 -7.9375 C 1.925781 -7.84375 1.984375 -7.691406 1.984375 -7.484375 C 1.984375 -7.265625 1.925781 -7.101562 1.8125 -7 C 1.695312 -6.90625 1.566406 -6.859375 1.421875 -6.859375 C 1.265625 -6.859375 1.128906 -6.90625 1.015625 -7 C 0.910156 -7.101562 0.859375 -7.265625 0.859375 -7.484375 C 0.859375 -7.691406 0.910156 -7.84375 1.015625 -7.9375 C 1.128906 -8.039062 1.265625 -8.09375 1.421875 -8.09375 Z M 1.90625 -5.890625 L 1.90625 0 L 0.9375 0 L 0.9375 -5.890625 Z M 1.90625 -5.890625 "/></g></g><g style="fill:#8ebb54;fill-opacity:1;"><g transform="translate(268.668462, 70.263672)"><path style="stroke:none" d="M 3.6875 -6 C 3.789062 -6 3.90625 -5.992188 4.03125 -5.984375 C 4.15625 -5.972656 4.269531 -5.957031 4.375 -5.9375 L 4.25 -5.046875 C 4.15625 -5.066406 4.046875 -5.082031 3.921875 -5.09375 C 3.804688 -5.113281 3.703125 -5.125 3.609375 -5.125 C 3.304688 -5.125 3.023438 -5.039062 2.765625 -4.875 C 2.503906 -4.707031 2.296875 -4.472656 2.140625 -4.171875 C 1.984375 -3.878906 1.90625 -3.535156 1.90625 -3.140625 L 1.90625 0 L 0.9375 0 L 0.9375 -5.890625 L 1.71875 -5.890625 L 1.828125 -4.8125 L 1.875 -4.8125 C 2.0625 -5.132812 2.304688 -5.410156 2.609375 -5.640625 C 2.910156 -5.878906 3.269531 -6 3.6875 -6 Z M 3.6875 -6 "/></g></g><g style="fill:#8ebb54;fill-opacity:1;"><g transform="translate(272.983236, 70.263672)"><path style="stroke:none" d="M 3.296875 0.109375 C 2.765625 0.109375 2.296875 0.00390625 1.890625 -0.203125 C 1.492188 -0.421875 1.179688 -0.753906 0.953125 -1.203125 C 0.722656 -1.648438 0.609375 -2.21875 0.609375 -2.90625 C 0.609375 -3.632812 0.722656 -4.222656 0.953125 -4.671875 C 1.191406 -5.128906 1.519531 -5.460938 1.9375 -5.671875 C 2.363281 -5.890625 2.835938 -6 3.359375 -6 C 3.648438 -6 3.9375 -5.96875 4.21875 -5.90625 C 4.5 -5.84375 4.726562 -5.765625 4.90625 -5.671875 L 4.609375 -4.875 C 4.429688 -4.9375 4.222656 -5 3.984375 -5.0625 C 3.753906 -5.125 3.539062 -5.15625 3.34375 -5.15625 C 2.1875 -5.15625 1.609375 -4.410156 1.609375 -2.921875 C 1.609375 -2.210938 1.75 -1.664062 2.03125 -1.28125 C 2.3125 -0.90625 2.726562 -0.71875 3.28125 -0.71875 C 3.59375 -0.71875 3.875 -0.75 4.125 -0.8125 C 4.375 -0.882812 4.601562 -0.96875 4.8125 -1.0625 L 4.8125 -0.203125 C 4.613281 -0.109375 4.394531 -0.0351562 4.15625 0.015625 C 3.914062 0.078125 3.628906 0.109375 3.296875 0.109375 Z M 3.296875 0.109375 "/></g></g><g style="fill:#8ebb54;fill-opacity:1;"><g transform="translate(278.25326, 70.263672)"><path style="stroke:none" d="M 5.859375 -5.890625 L 5.859375 0 L 5.0625 0 L 4.921875 -0.78125 L 4.875 -0.78125 C 4.6875 -0.46875 4.421875 -0.238281 4.078125 -0.09375 C 3.742188 0.0390625 3.390625 0.109375 3.015625 0.109375 C 2.296875 0.109375 1.757812 -0.0546875 1.40625 -0.390625 C 1.050781 -0.734375 0.875 -1.28125 0.875 -2.03125 L 0.875 -5.890625 L 1.84375 -5.890625 L 1.84375 -2.09375 C 1.84375 -1.15625 2.28125 -0.6875 3.15625 -0.6875 C 3.800781 -0.6875 4.25 -0.867188 4.5 -1.234375 C 4.757812 -1.609375 4.890625 -2.140625 4.890625 -2.828125 L 4.890625 -5.890625 Z M 5.859375 -5.890625 "/></g></g><g style="fill:#8ebb54;fill-opacity:1;"><g transform="translate(285.038412, 70.263672)"><path style="stroke:none" d="M 1.421875 -8.09375 C 1.566406 -8.09375 1.695312 -8.039062 1.8125 -7.9375 C 1.925781 -7.84375 1.984375 -7.691406 1.984375 -7.484375 C 1.984375 -7.265625 1.925781 -7.101562 1.8125 -7 C 1.695312 -6.90625 1.566406 -6.859375 1.421875 -6.859375 C 1.265625 -6.859375 1.128906 -6.90625 1.015625 -7 C 0.910156 -7.101562 0.859375 -7.265625 0.859375 -7.484375 C 0.859375 -7.691406 0.910156 -7.84375 1.015625 -7.9375 C 1.128906 -8.039062 1.265625 -8.09375 1.421875 -8.09375 Z M 1.90625 -5.890625 L 1.90625 0 L 0.9375 0 L 0.9375 -5.890625 Z M 1.90625 -5.890625 "/></g></g><g style="fill:#8ebb54;fill-opacity:1;"><g transform="translate(287.871047, 70.263672)"><path style="stroke:none" d="M 2.90625 -0.6875 C 3.050781 -0.6875 3.195312 -0.695312 3.34375 -0.71875 C 3.5 -0.738281 3.625 -0.765625 3.71875 -0.796875 L 3.71875 -0.0625 C 3.613281 -0.0078125 3.46875 0.03125 3.28125 0.0625 C 3.09375 0.09375 2.910156 0.109375 2.734375 0.109375 C 2.429688 0.109375 2.148438 0.0546875 1.890625 -0.046875 C 1.628906 -0.148438 1.414062 -0.332031 1.25 -0.59375 C 1.09375 -0.863281 1.015625 -1.238281 1.015625 -1.71875 L 1.015625 -5.140625 L 0.171875 -5.140625 L 0.171875 -5.609375 L 1.015625 -5.984375 L 1.40625 -7.234375 L 1.984375 -7.234375 L 1.984375 -5.890625 L 3.6875 -5.890625 L 3.6875 -5.140625 L 1.984375 -5.140625 L 1.984375 -1.734375 C 1.984375 -1.378906 2.066406 -1.113281 2.234375 -0.9375 C 2.410156 -0.769531 2.632812 -0.6875 2.90625 -0.6875 Z M 2.90625 -0.6875 "/></g></g><g style="fill:#8ebb54;fill-opacity:1;"><g transform="translate(291.834538, 70.263672)"><path style="stroke:none" d="M 4.765625 -1.625 C 4.765625 -1.050781 4.550781 -0.617188 4.125 -0.328125 C 3.707031 -0.0351562 3.140625 0.109375 2.421875 0.109375 C 2.003906 0.109375 1.644531 0.0703125 1.34375 0 C 1.050781 -0.0625 0.796875 -0.148438 0.578125 -0.265625 L 0.578125 -1.140625 C 0.804688 -1.023438 1.085938 -0.914062 1.421875 -0.8125 C 1.753906 -0.71875 2.09375 -0.671875 2.4375 -0.671875 C 2.925781 -0.671875 3.28125 -0.75 3.5 -0.90625 C 3.71875 -1.0625 3.828125 -1.269531 3.828125 -1.53125 C 3.828125 -1.675781 3.785156 -1.804688 3.703125 -1.921875 C 3.628906 -2.046875 3.488281 -2.164062 3.28125 -2.28125 C 3.070312 -2.394531 2.773438 -2.53125 2.390625 -2.6875 C 2.003906 -2.832031 1.675781 -2.976562 1.40625 -3.125 C 1.132812 -3.269531 0.925781 -3.441406 0.78125 -3.640625 C 0.632812 -3.847656 0.5625 -4.113281 0.5625 -4.4375 C 0.5625 -4.9375 0.765625 -5.320312 1.171875 -5.59375 C 1.578125 -5.863281 2.109375 -6 2.765625 -6 C 3.128906 -6 3.460938 -5.960938 3.765625 -5.890625 C 4.078125 -5.816406 4.367188 -5.722656 4.640625 -5.609375 L 4.3125 -4.828125 C 4.0625 -4.929688 3.800781 -5.019531 3.53125 -5.09375 C 3.257812 -5.164062 2.984375 -5.203125 2.703125 -5.203125 C 2.304688 -5.203125 2.003906 -5.140625 1.796875 -5.015625 C 1.585938 -4.890625 1.484375 -4.71875 1.484375 -4.5 C 1.484375 -4.320312 1.53125 -4.175781 1.625 -4.0625 C 1.71875 -3.957031 1.875 -3.847656 2.09375 -3.734375 C 2.320312 -3.628906 2.625 -3.507812 3 -3.375 C 3.375 -3.226562 3.691406 -3.082031 3.953125 -2.9375 C 4.210938 -2.789062 4.410156 -2.613281 4.546875 -2.40625 C 4.691406 -2.195312 4.765625 -1.9375 4.765625 -1.625 Z M 4.765625 -1.625 "/></g></g></g></svg>