<svg xmlns="http://www.w3.org/2000/svg" xmlns:xlink="http://www.w3.org/1999/xlink" width="493" zoomAndPan="magnify" viewBox="0 0 369.75 369.749991" height="493" preserveAspectRatio="xMidYMid meet" version="1.0"><defs><clipPath id="7b1d53fb79"><path d="M 0 0 L 368.753906 0 L 368.753906 368.753906 L 0 368.753906 Z M 0 0 " clip-rule="nonzero"/></clipPath><clipPath id="2d7cc16ffd"><path d="M 184.375 0 C 82.546875 0 0 82.546875 0 184.375 C 0 286.203125 82.546875 368.753906 184.375 368.753906 C 286.203125 368.753906 368.753906 286.203125 368.753906 184.375 C 368.753906 82.546875 286.203125 0 184.375 0 Z M 184.375 0 " clip-rule="nonzero"/></clipPath><clipPath id="e90faf0bd9"><path d="M 0 0 L 368.0625 0 L 368.0625 368.0625 L 0 368.0625 Z M 0 0 " clip-rule="nonzero"/></clipPath><clipPath id="3da835bac1"><path d="M 184.375 0 C 82.546875 0 0 82.546875 0 184.375 C 0 286.199219 82.546875 368.746094 184.375 368.746094 C 286.199219 368.746094 368.746094 286.199219 368.746094 184.375 C 368.746094 82.546875 286.199219 0 184.375 0 Z M 184.375 0 " clip-rule="nonzero"/></clipPath><clipPath id="fa15419439"><path d="M 151 94 L 327 94 L 327 316 L 151 316 Z M 151 94 " clip-rule="nonzero"/></clipPath><clipPath id="76df35a4a2"><path d="M 311.1875 80.699219 L 364.015625 279.703125 L 163.253906 333 L 110.421875 133.996094 Z M 311.1875 80.699219 " clip-rule="nonzero"/></clipPath><clipPath id="b585026e05"><path d="M 311.1875 80.699219 L 364.015625 279.703125 L 163.253906 333 L 110.421875 133.996094 Z M 311.1875 80.699219 " clip-rule="nonzero"/></clipPath><clipPath id="d1ee7f56de"><path d="M 180 225 L 247 225 L 247 292 L 180 292 Z M 180 225 " clip-rule="nonzero"/></clipPath><clipPath id="076abac3de"><path d="M 311.1875 80.699219 L 364.015625 279.703125 L 163.253906 333 L 110.421875 133.996094 Z M 311.1875 80.699219 " clip-rule="nonzero"/></clipPath><clipPath id="13a67192e0"><path d="M 311.1875 80.699219 L 364.015625 279.703125 L 163.253906 333 L 110.421875 133.996094 Z M 311.1875 80.699219 " clip-rule="nonzero"/></clipPath><clipPath id="b2fbd91d03"><path d="M 288 105 L 315 105 L 315 131 L 288 131 Z M 288 105 " clip-rule="nonzero"/></clipPath><clipPath id="2e52dd6ed8"><path d="M 311.1875 80.699219 L 364.015625 279.703125 L 163.253906 333 L 110.421875 133.996094 Z M 311.1875 80.699219 " clip-rule="nonzero"/></clipPath><clipPath id="9a6fdebdcc"><path d="M 311.1875 80.699219 L 364.015625 279.703125 L 163.253906 333 L 110.421875 133.996094 Z M 311.1875 80.699219 " clip-rule="nonzero"/></clipPath><clipPath id="f0680b3965"><path d="M 249 98 L 280 98 L 280 114 L 249 114 Z M 249 98 " clip-rule="nonzero"/></clipPath><clipPath id="8879e41169"><path d="M 311.1875 80.699219 L 364.015625 279.703125 L 163.253906 333 L 110.421875 133.996094 Z M 311.1875 80.699219 " clip-rule="nonzero"/></clipPath><clipPath id="404ebb7795"><path d="M 311.1875 80.699219 L 364.015625 279.703125 L 163.253906 333 L 110.421875 133.996094 Z M 311.1875 80.699219 " clip-rule="nonzero"/></clipPath><clipPath id="b493232eaa"><path d="M 226 115 L 244 115 L 244 141 L 226 141 Z M 226 115 " clip-rule="nonzero"/></clipPath><clipPath id="5e1ab742d9"><path d="M 311.1875 80.699219 L 364.015625 279.703125 L 163.253906 333 L 110.421875 133.996094 Z M 311.1875 80.699219 " clip-rule="nonzero"/></clipPath><clipPath id="3dddfec0b8"><path d="M 311.1875 80.699219 L 364.015625 279.703125 L 163.253906 333 L 110.421875 133.996094 Z M 311.1875 80.699219 " clip-rule="nonzero"/></clipPath><clipPath id="377077703a"><path d="M 215 158 L 233 158 L 233 187 L 215 187 Z M 215 158 " clip-rule="nonzero"/></clipPath><clipPath id="5ed258ee71"><path d="M 311.1875 80.699219 L 364.015625 279.703125 L 163.253906 333 L 110.421875 133.996094 Z M 311.1875 80.699219 " clip-rule="nonzero"/></clipPath><clipPath id="afefe0cad2"><path d="M 311.1875 80.699219 L 364.015625 279.703125 L 163.253906 333 L 110.421875 133.996094 Z M 311.1875 80.699219 " clip-rule="nonzero"/></clipPath><clipPath id="013e555343"><path d="M 189 198 L 210 198 L 210 221 L 189 221 Z M 189 198 " clip-rule="nonzero"/></clipPath><clipPath id="d691c53c55"><path d="M 311.1875 80.699219 L 364.015625 279.703125 L 163.253906 333 L 110.421875 133.996094 Z M 311.1875 80.699219 " clip-rule="nonzero"/></clipPath><clipPath id="a37861d1f4"><path d="M 311.1875 80.699219 L 364.015625 279.703125 L 163.253906 333 L 110.421875 133.996094 Z M 311.1875 80.699219 " clip-rule="nonzero"/></clipPath><clipPath id="1246a8a744"><path d="M 162 225 L 184 225 L 184 250 L 162 250 Z M 162 225 " clip-rule="nonzero"/></clipPath><clipPath id="0af1098ed6"><path d="M 311.1875 80.699219 L 364.015625 279.703125 L 163.253906 333 L 110.421875 133.996094 Z M 311.1875 80.699219 " clip-rule="nonzero"/></clipPath><clipPath id="6b3ab82589"><path d="M 311.1875 80.699219 L 364.015625 279.703125 L 163.253906 333 L 110.421875 133.996094 Z M 311.1875 80.699219 " clip-rule="nonzero"/></clipPath><clipPath id="6c1d140eda"><path d="M 160 265 L 181 265 L 181 294 L 160 294 Z M 160 265 " clip-rule="nonzero"/></clipPath><clipPath id="ffedab57a4"><path d="M 311.1875 80.699219 L 364.015625 279.703125 L 163.253906 333 L 110.421875 133.996094 Z M 311.1875 80.699219 " clip-rule="nonzero"/></clipPath><clipPath id="954daffced"><path d="M 311.1875 80.699219 L 364.015625 279.703125 L 163.253906 333 L 110.421875 133.996094 Z M 311.1875 80.699219 " clip-rule="nonzero"/></clipPath><clipPath id="1398ed068e"><path d="M 191 294 L 218 294 L 218 310 L 191 310 Z M 191 294 " clip-rule="nonzero"/></clipPath><clipPath id="bb2aaa3f88"><path d="M 311.1875 80.699219 L 364.015625 279.703125 L 163.253906 333 L 110.421875 133.996094 Z M 311.1875 80.699219 " clip-rule="nonzero"/></clipPath><clipPath id="85213c5594"><path d="M 311.1875 80.699219 L 364.015625 279.703125 L 163.253906 333 L 110.421875 133.996094 Z M 311.1875 80.699219 " clip-rule="nonzero"/></clipPath><clipPath id="c3f708436f"><path d="M 233 281 L 258 281 L 258 302 L 233 302 Z M 233 281 " clip-rule="nonzero"/></clipPath><clipPath id="6db26ec598"><path d="M 311.1875 80.699219 L 364.015625 279.703125 L 163.253906 333 L 110.421875 133.996094 Z M 311.1875 80.699219 " clip-rule="nonzero"/></clipPath><clipPath id="41db7ef3bb"><path d="M 311.1875 80.699219 L 364.015625 279.703125 L 163.253906 333 L 110.421875 133.996094 Z M 311.1875 80.699219 " clip-rule="nonzero"/></clipPath><clipPath id="8e3376eb32"><path d="M 305 142 L 320 142 L 320 171 L 305 171 Z M 305 142 " clip-rule="nonzero"/></clipPath><clipPath id="c2cc779e72"><path d="M 311.1875 80.699219 L 364.015625 279.703125 L 163.253906 333 L 110.421875 133.996094 Z M 311.1875 80.699219 " clip-rule="nonzero"/></clipPath><clipPath id="05ce6fc789"><path d="M 311.1875 80.699219 L 364.015625 279.703125 L 163.253906 333 L 110.421875 133.996094 Z M 311.1875 80.699219 " clip-rule="nonzero"/></clipPath><clipPath id="f58cfd3b8a"><path d="M 301 183 L 316 183 L 316 214 L 301 214 Z M 301 183 " clip-rule="nonzero"/></clipPath><clipPath id="c69e044b6a"><path d="M 311.1875 80.699219 L 364.015625 279.703125 L 163.253906 333 L 110.421875 133.996094 Z M 311.1875 80.699219 " clip-rule="nonzero"/></clipPath><clipPath id="a1e1c70b12"><path d="M 311.1875 80.699219 L 364.015625 279.703125 L 163.253906 333 L 110.421875 133.996094 Z M 311.1875 80.699219 " clip-rule="nonzero"/></clipPath><clipPath id="fc0f4363c5"><path d="M 282 222 L 303 222 L 303 253 L 282 253 Z M 282 222 " clip-rule="nonzero"/></clipPath><clipPath id="5be6276cc7"><path d="M 311.1875 80.699219 L 364.015625 279.703125 L 163.253906 333 L 110.421875 133.996094 Z M 311.1875 80.699219 " clip-rule="nonzero"/></clipPath><clipPath id="3c5bd777fd"><path d="M 311.1875 80.699219 L 364.015625 279.703125 L 163.253906 333 L 110.421875 133.996094 Z M 311.1875 80.699219 " clip-rule="nonzero"/></clipPath><clipPath id="f48fe19312"><path d="M 262 258 L 283 258 L 283 280 L 262 280 Z M 262 258 " clip-rule="nonzero"/></clipPath><clipPath id="465ed2a8be"><path d="M 311.1875 80.699219 L 364.015625 279.703125 L 163.253906 333 L 110.421875 133.996094 Z M 311.1875 80.699219 " clip-rule="nonzero"/></clipPath><clipPath id="88b9c95490"><path d="M 311.1875 80.699219 L 364.015625 279.703125 L 163.253906 333 L 110.421875 133.996094 Z M 311.1875 80.699219 " clip-rule="nonzero"/></clipPath><clipPath id="4dc2bd6376"><path d="M 275 117 L 283 117 L 283 126 L 275 126 Z M 275 117 " clip-rule="nonzero"/></clipPath><clipPath id="e1cd3d8bb3"><path d="M 311.1875 80.699219 L 364.015625 279.703125 L 163.253906 333 L 110.421875 133.996094 Z M 311.1875 80.699219 " clip-rule="nonzero"/></clipPath><clipPath id="8dd959df70"><path d="M 311.1875 80.699219 L 364.015625 279.703125 L 163.253906 333 L 110.421875 133.996094 Z M 311.1875 80.699219 " clip-rule="nonzero"/></clipPath><clipPath id="26d7ae9a1d"><path d="M 291 165 L 300 165 L 300 173 L 291 173 Z M 291 165 " clip-rule="nonzero"/></clipPath><clipPath id="8d64a82c15"><path d="M 311.1875 80.699219 L 364.015625 279.703125 L 163.253906 333 L 110.421875 133.996094 Z M 311.1875 80.699219 " clip-rule="nonzero"/></clipPath><clipPath id="f3d9376c7b"><path d="M 311.1875 80.699219 L 364.015625 279.703125 L 163.253906 333 L 110.421875 133.996094 Z M 311.1875 80.699219 " clip-rule="nonzero"/></clipPath><clipPath id="b373fb5c1b"><path d="M 242 145 L 251 145 L 251 154 L 242 154 Z M 242 145 " clip-rule="nonzero"/></clipPath><clipPath id="b3906d285c"><path d="M 311.1875 80.699219 L 364.015625 279.703125 L 163.253906 333 L 110.421875 133.996094 Z M 311.1875 80.699219 " clip-rule="nonzero"/></clipPath><clipPath id="7e00b1835e"><path d="M 311.1875 80.699219 L 364.015625 279.703125 L 163.253906 333 L 110.421875 133.996094 Z M 311.1875 80.699219 " clip-rule="nonzero"/></clipPath><clipPath id="e4e6699224"><path d="M 254 239 L 263 239 L 263 248 L 254 248 Z M 254 239 " clip-rule="nonzero"/></clipPath><clipPath id="ec21ce33f9"><path d="M 311.1875 80.699219 L 364.015625 279.703125 L 163.253906 333 L 110.421875 133.996094 Z M 311.1875 80.699219 " clip-rule="nonzero"/></clipPath><clipPath id="966cfcd69b"><path d="M 311.1875 80.699219 L 364.015625 279.703125 L 163.253906 333 L 110.421875 133.996094 Z M 311.1875 80.699219 " clip-rule="nonzero"/></clipPath><clipPath id="50ea069527"><path d="M 216 199 L 224 199 L 224 207 L 216 207 Z M 216 199 " clip-rule="nonzero"/></clipPath><clipPath id="c8ce799413"><path d="M 311.1875 80.699219 L 364.015625 279.703125 L 163.253906 333 L 110.421875 133.996094 Z M 311.1875 80.699219 " clip-rule="nonzero"/></clipPath><clipPath id="6b9d5d83e5"><path d="M 311.1875 80.699219 L 364.015625 279.703125 L 163.253906 333 L 110.421875 133.996094 Z M 311.1875 80.699219 " clip-rule="nonzero"/></clipPath><clipPath id="d4ce7de4d1"><path d="M 259 190 L 267 190 L 267 199 L 259 199 Z M 259 190 " clip-rule="nonzero"/></clipPath><clipPath id="92b17362e2"><path d="M 311.1875 80.699219 L 364.015625 279.703125 L 163.253906 333 L 110.421875 133.996094 Z M 311.1875 80.699219 " clip-rule="nonzero"/></clipPath><clipPath id="1e59a7704e"><path d="M 311.1875 80.699219 L 364.015625 279.703125 L 163.253906 333 L 110.421875 133.996094 Z M 311.1875 80.699219 " clip-rule="nonzero"/></clipPath><clipPath id="d2c23cd518"><path d="M 283 212 L 291 212 L 291 221 L 283 221 Z M 283 212 " clip-rule="nonzero"/></clipPath><clipPath id="a729679747"><path d="M 311.1875 80.699219 L 364.015625 279.703125 L 163.253906 333 L 110.421875 133.996094 Z M 311.1875 80.699219 " clip-rule="nonzero"/></clipPath><clipPath id="aae2da1a4f"><path d="M 311.1875 80.699219 L 364.015625 279.703125 L 163.253906 333 L 110.421875 133.996094 Z M 311.1875 80.699219 " clip-rule="nonzero"/></clipPath><clipPath id="3fd4b2c6db"><path d="M 236 214 L 245 214 L 245 222 L 236 222 Z M 236 214 " clip-rule="nonzero"/></clipPath><clipPath id="d3e8c9fb5d"><path d="M 311.1875 80.699219 L 364.015625 279.703125 L 163.253906 333 L 110.421875 133.996094 Z M 311.1875 80.699219 " clip-rule="nonzero"/></clipPath><clipPath id="dc14b2d63d"><path d="M 311.1875 80.699219 L 364.015625 279.703125 L 163.253906 333 L 110.421875 133.996094 Z M 311.1875 80.699219 " clip-rule="nonzero"/></clipPath><clipPath id="1994465e35"><path d="M 202 232 L 224 232 L 224 254 L 202 254 Z M 202 232 " clip-rule="nonzero"/></clipPath><clipPath id="d8e669c869"><path d="M 311.1875 80.699219 L 364.015625 279.703125 L 163.253906 333 L 110.421875 133.996094 Z M 311.1875 80.699219 " clip-rule="nonzero"/></clipPath><clipPath id="be9ef85a7f"><path d="M 311.1875 80.699219 L 364.015625 279.703125 L 163.253906 333 L 110.421875 133.996094 Z M 311.1875 80.699219 " clip-rule="nonzero"/></clipPath><clipPath id="09dda35bb2"><path d="M 213 252 L 240 252 L 240 279 L 213 279 Z M 213 252 " clip-rule="nonzero"/></clipPath><clipPath id="8ca25b9103"><path d="M 311.1875 80.699219 L 364.015625 279.703125 L 163.253906 333 L 110.421875 133.996094 Z M 311.1875 80.699219 " clip-rule="nonzero"/></clipPath><clipPath id="08e76bf00d"><path d="M 311.1875 80.699219 L 364.015625 279.703125 L 163.253906 333 L 110.421875 133.996094 Z M 311.1875 80.699219 " clip-rule="nonzero"/></clipPath><clipPath id="2535d46517"><path d="M 192 252 L 211 252 L 211 271 L 192 271 Z M 192 252 " clip-rule="nonzero"/></clipPath><clipPath id="0810e060bc"><path d="M 311.1875 80.699219 L 364.015625 279.703125 L 163.253906 333 L 110.421875 133.996094 Z M 311.1875 80.699219 " clip-rule="nonzero"/></clipPath><clipPath id="3e21721959"><path d="M 311.1875 80.699219 L 364.015625 279.703125 L 163.253906 333 L 110.421875 133.996094 Z M 311.1875 80.699219 " clip-rule="nonzero"/></clipPath><clipPath id="cf20d7c0d6"><path d="M 166 254 L 175 254 L 175 263 L 166 263 Z M 166 254 " clip-rule="nonzero"/></clipPath><clipPath id="ee192d3fbb"><path d="M 311.1875 80.699219 L 364.015625 279.703125 L 163.253906 333 L 110.421875 133.996094 Z M 311.1875 80.699219 " clip-rule="nonzero"/></clipPath><clipPath id="93630472fc"><path d="M 311.1875 80.699219 L 364.015625 279.703125 L 163.253906 333 L 110.421875 133.996094 Z M 311.1875 80.699219 " clip-rule="nonzero"/></clipPath><clipPath id="976e4a09a7"><path d="M 276 137 L 284 137 L 284 146 L 276 146 Z M 276 137 " clip-rule="nonzero"/></clipPath><clipPath id="959ecd4b91"><path d="M 311.1875 80.699219 L 364.015625 279.703125 L 163.253906 333 L 110.421875 133.996094 Z M 311.1875 80.699219 " clip-rule="nonzero"/></clipPath><clipPath id="d371b0b975"><path d="M 311.1875 80.699219 L 364.015625 279.703125 L 163.253906 333 L 110.421875 133.996094 Z M 311.1875 80.699219 " clip-rule="nonzero"/></clipPath><clipPath id="7f608f28a5"><path d="M 245 162 L 254 162 L 254 171 L 245 171 Z M 245 162 " clip-rule="nonzero"/></clipPath><clipPath id="a118b30943"><path d="M 311.1875 80.699219 L 364.015625 279.703125 L 163.253906 333 L 110.421875 133.996094 Z M 311.1875 80.699219 " clip-rule="nonzero"/></clipPath><clipPath id="5ebe125d52"><path d="M 311.1875 80.699219 L 364.015625 279.703125 L 163.253906 333 L 110.421875 133.996094 Z M 311.1875 80.699219 " clip-rule="nonzero"/></clipPath><clipPath id="37c96971d3"><path d="M 22 20 L 242 20 L 242 273 L 22 273 Z M 22 20 " clip-rule="nonzero"/></clipPath><clipPath id="dfebcf4d6d"><path d="M 0 40.6875 L 251.945312 14.777344 L 277.851562 266.722656 L 25.910156 292.628906 Z M 0 40.6875 " clip-rule="nonzero"/></clipPath><clipPath id="e57f9e4368"><path d="M 0 40.6875 L 251.945312 14.777344 L 277.851562 266.722656 L 25.910156 292.628906 Z M 0 40.6875 " clip-rule="nonzero"/></clipPath><clipPath id="d76c135e79"><path d="M 61 52 L 257 52 L 257 287 L 61 287 Z M 61 52 " clip-rule="nonzero"/></clipPath><clipPath id="c0fed3061e"><path d="M 0 40.6875 L 251.945312 14.777344 L 277.851562 266.722656 L 25.910156 292.628906 Z M 0 40.6875 " clip-rule="nonzero"/></clipPath><clipPath id="3bcc875f8a"><path d="M 0 40.6875 L 251.945312 14.777344 L 277.851562 266.722656 L 25.910156 292.628906 Z M 0 40.6875 " clip-rule="nonzero"/></clipPath><clipPath id="8766d1e956"><path d="M 64 57 L 242 57 L 242 273 L 64 273 Z M 64 57 " clip-rule="nonzero"/></clipPath><clipPath id="4acb730cb2"><path d="M 0 40.6875 L 251.945312 14.777344 L 277.851562 266.722656 L 25.910156 292.628906 Z M 0 40.6875 " clip-rule="nonzero"/></clipPath><clipPath id="3f78c28231"><path d="M 0 40.6875 L 251.945312 14.777344 L 277.851562 266.722656 L 25.910156 292.628906 Z M 0 40.6875 " clip-rule="nonzero"/></clipPath></defs><g clip-path="url(#7b1d53fb79)"><g clip-path="url(#2d7cc16ffd)"><path fill="#1b4a3b" d="M 0 0 L 368.753906 0 L 368.753906 368.753906 L 0 368.753906 Z M 0 0 " fill-opacity="1" fill-rule="nonzero"/></g></g><g clip-path="url(#e90faf0bd9)"><g clip-path="url(#3da835bac1)"><path stroke-linecap="butt" transform="matrix(1.8221, 0, 0, 1.8221, 0.0000045, 0)" fill="none" stroke-linejoin="miter" d="M 101.188175 0 C 45.303145 0 -0.00000246968 45.303148 -0.00000246968 101.188177 C -0.00000246968 157.071063 45.303145 202.374211 101.188175 202.374211 C 157.071061 202.374211 202.374208 157.071063 202.374208 101.188177 C 202.374208 45.303148 157.071061 0 101.188175 0 Z M 101.188175 0 " stroke="#8ebb54" stroke-width="6.581357" stroke-opacity="1" stroke-miterlimit="4"/></g></g><g clip-path="url(#fa15419439)"><g clip-path="url(#76df35a4a2)"><g clip-path="url(#b585026e05)"><path fill="#5d9f41" d="M 184.023438 309.449219 C 203.417969 318.445312 227.011719 316.792969 246.507812 307.703125 C 267.4375 297.949219 284.03125 280.53125 296.539062 261.121094 C 316.3125 230.441406 326.882812 193.914062 326.546875 157.417969 C 326.4375 145.363281 325.085938 133.050781 319.890625 122.179688 C 313.871094 109.585938 303.800781 102.105469 288.605469 97.089844 C 278.90625 93.40625 267.226562 94.175781 257.070312 96.160156 C 241.414062 99.214844 227.246094 110.191406 221.496094 125.066406 C 215.769531 139.886719 218.449219 156.832031 213.34375 171.878906 C 202.785156 202.984375 162.75 217.132812 153.605469 248.679688 C 147.179688 270.859375 159.71875 295.9375 179.820312 307.296875 C 181.199219 308.070312 182.601562 308.792969 184.023438 309.453125 Z M 184.023438 309.449219 " fill-opacity="1" fill-rule="nonzero"/></g></g></g><g clip-path="url(#d1ee7f56de)"><g clip-path="url(#076abac3de)"><g clip-path="url(#13a67192e0)"><path fill="#8ebb54" d="M 221.710938 289.914062 C 220.671875 290.1875 219.621094 290.414062 218.5625 290.585938 C 217.5 290.757812 216.433594 290.878906 215.363281 290.945312 C 214.289062 291.011719 213.21875 291.027344 212.144531 290.992188 C 211.070312 290.953125 210 290.863281 208.9375 290.71875 C 207.871094 290.578125 206.816406 290.382812 205.769531 290.136719 C 204.722656 289.890625 203.691406 289.59375 202.675781 289.246094 C 201.660156 288.898438 200.664062 288.5 199.683594 288.054688 C 198.707031 287.609375 197.753906 287.117188 196.824219 286.578125 C 195.894531 286.039062 194.996094 285.457031 194.125 284.828125 C 193.25 284.199219 192.414062 283.53125 191.605469 282.820312 C 190.800781 282.109375 190.03125 281.363281 189.296875 280.578125 C 188.566406 279.789062 187.875 278.972656 187.222656 278.117188 C 186.570312 277.261719 185.960938 276.378906 185.394531 275.464844 C 184.832031 274.550781 184.3125 273.613281 183.839844 272.648438 C 183.367188 271.683594 182.941406 270.699219 182.566406 269.691406 C 182.1875 268.6875 181.863281 267.664062 181.585938 266.625 C 181.3125 265.585938 181.085938 264.539062 180.914062 263.476562 C 180.742188 262.417969 180.621094 261.351562 180.554688 260.277344 C 180.488281 259.207031 180.472656 258.132812 180.507812 257.058594 C 180.546875 255.984375 180.636719 254.917969 180.78125 253.851562 C 180.921875 252.785156 181.117188 251.730469 181.363281 250.6875 C 181.609375 249.640625 181.90625 248.609375 182.253906 247.59375 C 182.601562 246.574219 183 245.578125 183.445312 244.601562 C 183.890625 243.625 184.382812 242.671875 184.921875 241.742188 C 185.460938 240.8125 186.042969 239.910156 186.671875 239.039062 C 187.300781 238.167969 187.96875 237.328125 188.679688 236.523438 C 189.390625 235.714844 190.136719 234.945312 190.921875 234.214844 C 191.710938 233.480469 192.527344 232.789062 193.382812 232.136719 C 194.238281 231.484375 195.121094 230.875 196.035156 230.3125 C 196.949219 229.746094 197.886719 229.226562 198.851562 228.753906 C 199.816406 228.28125 200.800781 227.855469 201.808594 227.480469 C 202.8125 227.105469 203.835938 226.777344 204.875 226.503906 C 205.914062 226.226562 206.960938 226.003906 208.023438 225.832031 C 209.082031 225.660156 210.148438 225.539062 211.222656 225.46875 C 212.292969 225.402344 213.367188 225.386719 214.441406 225.425781 C 215.515625 225.460938 216.582031 225.554688 217.648438 225.695312 C 218.714844 225.839844 219.769531 226.03125 220.816406 226.277344 C 221.859375 226.527344 222.890625 226.824219 223.90625 227.171875 C 224.925781 227.519531 225.921875 227.914062 226.898438 228.359375 C 227.875 228.804688 228.828125 229.296875 229.757812 229.835938 C 230.6875 230.375 231.589844 230.960938 232.460938 231.589844 C 233.332031 232.214844 234.171875 232.886719 234.976562 233.59375 C 235.785156 234.304688 236.554688 235.054688 237.285156 235.839844 C 238.019531 236.625 238.710938 237.445312 239.363281 238.296875 C 240.015625 239.152344 240.625 240.035156 241.1875 240.949219 C 241.753906 241.863281 242.273438 242.804688 242.746094 243.765625 C 243.21875 244.730469 243.644531 245.71875 244.019531 246.722656 C 244.394531 247.730469 244.722656 248.753906 244.996094 249.789062 C 245.273438 250.828125 245.496094 251.878906 245.667969 252.9375 C 245.84375 254 245.960938 255.066406 246.03125 256.136719 C 246.097656 257.210938 246.113281 258.28125 246.074219 259.355469 C 246.039062 260.429688 245.949219 261.5 245.804688 262.566406 C 245.660156 263.628906 245.46875 264.683594 245.222656 265.730469 C 244.976562 266.777344 244.679688 267.808594 244.328125 268.824219 C 243.980469 269.839844 243.585938 270.835938 243.140625 271.816406 C 242.695312 272.792969 242.203125 273.746094 241.664062 274.675781 C 241.125 275.605469 240.539062 276.503906 239.910156 277.375 C 239.285156 278.25 238.613281 279.085938 237.90625 279.894531 C 237.195312 280.699219 236.445312 281.46875 235.660156 282.203125 C 234.875 282.933594 234.054688 283.625 233.203125 284.277344 C 232.347656 284.929688 231.464844 285.539062 230.550781 286.105469 C 229.636719 286.667969 228.699219 287.1875 227.734375 287.660156 C 226.769531 288.132812 225.78125 288.558594 224.777344 288.933594 C 223.769531 289.3125 222.746094 289.636719 221.710938 289.914062 Z M 221.710938 289.914062 " fill-opacity="1" fill-rule="nonzero"/></g></g></g><g clip-path="url(#b2fbd91d03)"><g clip-path="url(#2e52dd6ed8)"><g clip-path="url(#9a6fdebdcc)"><path fill="#8ebb54" d="M 314.191406 126.269531 C 315.0625 122.996094 312.984375 120.328125 310.855469 118.128906 C 308.445312 115.632812 305.804688 113.351562 303.007812 111.289062 C 300.820312 108.882812 298.351562 106.902344 295.109375 105.894531 C 293.179688 105.292969 290.894531 106.160156 289.855469 107.902344 C 288.347656 110.433594 288.421875 113.445312 290.265625 115.808594 C 291.898438 117.898438 294.386719 118.632812 296.542969 120.039062 C 298.585938 121.371094 300.367188 123.179688 301.683594 125.226562 C 303.285156 127.71875 304.671875 130.429688 308.023438 130.683594 C 310.886719 130.894531 313.449219 129.03125 314.191406 126.269531 Z M 314.191406 126.269531 " fill-opacity="1" fill-rule="nonzero"/></g></g></g><g clip-path="url(#f0680b3965)"><g clip-path="url(#8879e41169)"><g clip-path="url(#404ebb7795)"><path fill="#8ebb54" d="M 272.886719 109.792969 C 273.941406 109.730469 274.816406 109.375 275.511719 108.84375 C 279.859375 108.191406 281.324219 101.203125 276.257812 99.921875 C 268.269531 97.898438 258.6875 99.066406 251.640625 103.371094 C 249.511719 104.675781 248.601562 107.371094 249.84375 109.628906 C 252.0625 113.675781 256.816406 114.125 260.554688 111.902344 C 262.386719 110.8125 263.242188 110.382812 265.386719 110.246094 C 267.886719 110.085938 270.386719 109.945312 272.886719 109.792969 Z M 272.886719 109.792969 " fill-opacity="1" fill-rule="nonzero"/></g></g></g><g clip-path="url(#b493232eaa)"><g clip-path="url(#5e1ab742d9)"><g clip-path="url(#3dddfec0b8)"><path fill="#8ebb54" d="M 238.316406 137.808594 C 239.652344 135.757812 239.320312 133.707031 239.261719 131.445312 C 239.210938 129.402344 239.558594 127.4375 240.480469 125.59375 C 240.808594 124.933594 240.976562 124.277344 241 123.644531 C 246.175781 120.835938 241.734375 112.8125 236.511719 115.609375 C 232.539062 117.738281 230.371094 121.425781 229.972656 125.855469 C 229.90625 126.636719 229.992188 127.371094 229.683594 128.09375 C 229.355469 128.882812 228.519531 129.515625 228.074219 130.261719 C 226.84375 132.335938 226.46875 135.042969 227.582031 137.242188 C 229.773438 141.5625 235.667969 141.878906 238.320312 137.804688 Z M 238.316406 137.808594 " fill-opacity="1" fill-rule="nonzero"/></g></g></g><g clip-path="url(#377077703a)"><g clip-path="url(#5ed258ee71)"><g clip-path="url(#afefe0cad2)"><path fill="#8ebb54" d="M 229.019531 179.925781 C 231.453125 176.191406 232.667969 171.671875 232.472656 167.222656 C 232.460938 166.988281 232.4375 166.769531 232.402344 166.554688 C 232.496094 164.925781 232.40625 163.273438 232.148438 161.59375 C 231.25 155.738281 222.3125 157.933594 223.199219 163.753906 C 223.777344 167.53125 222.203125 170.597656 219.75 173.320312 C 217.136719 176.226562 214.730469 179.304688 215.324219 183.417969 C 215.53125 184.878906 217.035156 186.453125 218.472656 186.75 C 223.039062 187.6875 226.746094 183.429688 229.023438 179.929688 Z M 229.019531 179.925781 " fill-opacity="1" fill-rule="nonzero"/></g></g></g><g clip-path="url(#013e555343)"><g clip-path="url(#d691c53c55)"><g clip-path="url(#a37861d1f4)"><path fill="#8ebb54" d="M 202.464844 214.773438 C 205.0625 212.140625 207.304688 209.128906 209.128906 205.917969 C 211.777344 201.25 205.585938 196.859375 202.21875 199.917969 C 201.746094 200.128906 201.285156 200.445312 200.847656 200.878906 C 197.800781 203.898438 194.6875 206.867188 191.699219 209.945312 C 190.277344 211.417969 189.105469 212.808594 189.097656 214.96875 C 189.089844 217.191406 190.65625 219.160156 192.773438 219.800781 C 196.535156 220.933594 200.089844 217.175781 202.460938 214.769531 Z M 202.464844 214.773438 " fill-opacity="1" fill-rule="nonzero"/></g></g></g><g clip-path="url(#1246a8a744)"><g clip-path="url(#0af1098ed6)"><g clip-path="url(#6b3ab82589)"><path fill="#8ebb54" d="M 170.519531 247.804688 C 174.015625 244.277344 176.574219 240.332031 178.582031 235.8125 C 179.371094 235.105469 180.207031 234.4375 181.085938 233.832031 C 183.132812 232.425781 184.167969 229.898438 182.882812 227.574219 C 181.769531 225.558594 178.6875 224.359375 176.625 225.777344 C 170.269531 230.144531 165.652344 235.945312 162.917969 243.160156 C 161.265625 247.527344 167.378906 250.96875 170.519531 247.804688 Z M 170.519531 247.804688 " fill-opacity="1" fill-rule="nonzero"/></g></g></g><g clip-path="url(#6c1d140eda)"><g clip-path="url(#ffedab57a4)"><g clip-path="url(#954daffced)"><path fill="#8ebb54" d="M 180.664062 288.003906 C 180.683594 285.351562 178.960938 283.589844 177.203125 281.839844 C 173.59375 278.25 171.328125 273.917969 170.277344 268.941406 C 169.90625 267.171875 168.820312 266.152344 167.519531 265.742188 C 164.703125 264.28125 160.625 265.425781 160.882812 269.402344 C 161.242188 274.902344 162.558594 280.195312 165.238281 285.046875 C 167.378906 288.910156 171.105469 294.972656 176.34375 293.601562 C 178.894531 292.9375 180.644531 290.652344 180.660156 288.011719 Z M 180.664062 288.003906 " fill-opacity="1" fill-rule="nonzero"/></g></g></g><g clip-path="url(#1398ed068e)"><g clip-path="url(#bb2aaa3f88)"><g clip-path="url(#85213c5594)"><path fill="#8ebb54" d="M 216.078125 306.730469 C 218.613281 302.980469 215.890625 298.550781 211.585938 298.425781 C 207.324219 298.308594 203.949219 298.203125 200.140625 295.945312 C 199.183594 295.378906 198.234375 295.195312 197.359375 295.289062 C 192.703125 293.183594 188.617188 300.429688 193.292969 303.550781 C 196.636719 305.777344 200.398438 307.484375 204.328125 308.351562 C 207.960938 309.152344 213.574219 310.425781 216.074219 306.730469 Z M 216.078125 306.730469 " fill-opacity="1" fill-rule="nonzero"/></g></g></g><g clip-path="url(#c3f708436f)"><g clip-path="url(#6db26ec598)"><g clip-path="url(#41db7ef3bb)"><path fill="#8ebb54" d="M 257.183594 287.652344 C 257.964844 283.496094 253.085938 279.386719 249.585938 283.007812 C 245.507812 287.230469 240.921875 290.550781 235.644531 293.125 C 230.917969 295.429688 233.910156 302.03125 238.367188 301.664062 C 238.660156 301.726562 238.96875 301.761719 239.304688 301.765625 C 247.890625 301.894531 255.570312 296.246094 257.183594 287.648438 Z M 257.183594 287.652344 " fill-opacity="1" fill-rule="nonzero"/></g></g></g><g clip-path="url(#8e3376eb32)"><g clip-path="url(#c2cc779e72)"><g clip-path="url(#05ce6fc789)"><path fill="#8ebb54" d="M 314.097656 169.882812 C 317.199219 167.722656 318.855469 161.894531 319.390625 158.367188 C 320.160156 153.261719 318.152344 148.84375 315.207031 144.789062 C 313.382812 142.277344 308.984375 141.175781 307.25 144.621094 C 306.464844 146.195312 305.949219 147.632812 306.0625 149.414062 C 306.109375 150.152344 306.296875 150.800781 306.585938 151.367188 C 306.988281 155.5625 306.613281 159.679688 305.851562 163.84375 C 305.40625 166.261719 305.710938 168.507812 307.886719 170.003906 C 309.792969 171.3125 312.238281 171.179688 314.101562 169.882812 Z M 314.097656 169.882812 " fill-opacity="1" fill-rule="nonzero"/></g></g></g><g clip-path="url(#f58cfd3b8a)"><g clip-path="url(#c69e044b6a)"><g clip-path="url(#a1e1c70b12)"><path fill="#8ebb54" d="M 310.21875 211.796875 C 311.917969 210.320312 312.566406 207.746094 313.261719 205.714844 C 314.066406 203.375 314.753906 200.992188 315.285156 198.578125 C 316.390625 193.5 316.363281 188.957031 312.957031 184.765625 C 309.816406 180.890625 304.625 184.824219 305.285156 188.894531 C 304.089844 194.273438 302.835938 199.640625 301.726562 205.035156 C 301.148438 207.820312 300.886719 210.382812 303.46875 212.21875 C 305.535156 213.6875 308.3125 213.464844 310.21875 211.804688 Z M 310.21875 211.796875 " fill-opacity="1" fill-rule="nonzero"/></g></g></g><g clip-path="url(#fc0f4363c5)"><g clip-path="url(#5be6276cc7)"><g clip-path="url(#3c5bd777fd)"><path fill="#8ebb54" d="M 299.015625 242.636719 C 301.390625 238.109375 302.671875 233.171875 302.769531 228.0625 C 302.804688 226.179688 301.898438 224.867188 300.640625 224.140625 C 298.714844 222.214844 295.265625 221.78125 293.523438 224.832031 C 290.464844 230.175781 287.359375 235.507812 284.351562 240.882812 C 283.144531 243.03125 281.933594 245.261719 282.546875 247.816406 C 283.210938 250.5625 285.644531 252.441406 288.464844 252.425781 C 293.195312 252.402344 297.058594 246.382812 299.019531 242.640625 Z M 299.015625 242.636719 " fill-opacity="1" fill-rule="nonzero"/></g></g></g><g clip-path="url(#f48fe19312)"><g clip-path="url(#465ed2a8be)"><g clip-path="url(#88b9c95490)"><path fill="#8ebb54" d="M 269.226562 279.433594 C 275.0625 276.796875 279.289062 271.851562 281.460938 265.890625 C 281.546875 265.648438 281.609375 265.414062 281.65625 265.183594 C 284.113281 261.097656 278.40625 255.75 274.472656 259.558594 C 271.5625 262.375 268.636719 265.164062 265.75 268.003906 C 262.855469 270.847656 261.351562 273.652344 262.96875 277.636719 C 263.957031 280.066406 267.191406 280.355469 269.226562 279.433594 Z M 269.226562 279.433594 " fill-opacity="1" fill-rule="nonzero"/></g></g></g><g clip-path="url(#4dc2bd6376)"><g clip-path="url(#e1cd3d8bb3)"><g clip-path="url(#8dd959df70)"><path fill="#8ebb54" d="M 279.863281 125.089844 C 279.378906 125.21875 278.882812 125.25 278.382812 125.183594 C 277.882812 125.117188 277.417969 124.957031 276.980469 124.703125 C 276.546875 124.449219 276.175781 124.125 275.867188 123.722656 C 275.5625 123.324219 275.34375 122.878906 275.214844 122.390625 C 275.085938 121.90625 275.054688 121.410156 275.121094 120.910156 C 275.1875 120.414062 275.347656 119.945312 275.601562 119.507812 C 275.855469 119.074219 276.183594 118.703125 276.582031 118.394531 C 276.984375 118.089844 277.425781 117.871094 277.914062 117.742188 C 278.402344 117.613281 278.894531 117.582031 279.394531 117.648438 C 279.894531 117.71875 280.359375 117.875 280.796875 118.128906 C 281.234375 118.382812 281.601562 118.710938 281.910156 119.109375 C 282.214844 119.511719 282.433594 119.953125 282.5625 120.441406 C 282.691406 120.929688 282.722656 121.421875 282.65625 121.921875 C 282.589844 122.421875 282.429688 122.886719 282.175781 123.324219 C 281.921875 123.761719 281.597656 124.132812 281.195312 124.4375 C 280.796875 124.742188 280.351562 124.960938 279.863281 125.089844 Z M 279.863281 125.089844 " fill-opacity="1" fill-rule="nonzero"/></g></g></g><g clip-path="url(#26d7ae9a1d)"><g clip-path="url(#8d64a82c15)"><g clip-path="url(#f3d9376c7b)"><path fill="#8ebb54" d="M 296.246094 172.5 C 295.757812 172.628906 295.265625 172.660156 294.765625 172.59375 C 294.265625 172.527344 293.796875 172.367188 293.363281 172.113281 C 292.925781 171.863281 292.554688 171.535156 292.25 171.132812 C 291.941406 170.734375 291.726562 170.289062 291.597656 169.804688 C 291.46875 169.316406 291.4375 168.824219 291.503906 168.324219 C 291.570312 167.824219 291.730469 167.355469 291.984375 166.921875 C 292.234375 166.484375 292.5625 166.113281 292.960938 165.808594 C 293.363281 165.5 293.808594 165.285156 294.292969 165.15625 C 294.78125 165.027344 295.273438 164.996094 295.773438 165.0625 C 296.273438 165.128906 296.742188 165.289062 297.175781 165.542969 C 297.613281 165.792969 297.984375 166.121094 298.289062 166.519531 C 298.59375 166.921875 298.8125 167.367188 298.941406 167.851562 C 299.070312 168.339844 299.101562 168.832031 299.035156 169.332031 C 298.96875 169.832031 298.808594 170.300781 298.554688 170.734375 C 298.304688 171.171875 297.976562 171.542969 297.574219 171.847656 C 297.175781 172.152344 296.730469 172.371094 296.246094 172.5 Z M 296.246094 172.5 " fill-opacity="1" fill-rule="nonzero"/></g></g></g><g clip-path="url(#b373fb5c1b)"><g clip-path="url(#b3906d285c)"><g clip-path="url(#7e00b1835e)"><path fill="#8ebb54" d="M 247.683594 153.367188 C 247.199219 153.496094 246.703125 153.527344 246.203125 153.460938 C 245.707031 153.394531 245.238281 153.234375 244.800781 152.980469 C 244.367188 152.726562 243.996094 152.402344 243.6875 152 C 243.382812 151.601562 243.164062 151.15625 243.035156 150.667969 C 242.90625 150.183594 242.875 149.6875 242.941406 149.191406 C 243.007812 148.691406 243.167969 148.222656 243.421875 147.785156 C 243.675781 147.351562 244.003906 146.980469 244.402344 146.675781 C 244.804688 146.367188 245.246094 146.152344 245.734375 146.019531 C 246.222656 145.890625 246.714844 145.859375 247.214844 145.925781 C 247.714844 145.996094 248.179688 146.15625 248.617188 146.40625 C 249.054688 146.660156 249.425781 146.988281 249.730469 147.386719 C 250.035156 147.789062 250.253906 148.230469 250.382812 148.71875 C 250.511719 149.207031 250.542969 149.699219 250.476562 150.199219 C 250.410156 150.699219 250.25 151.167969 249.996094 151.601562 C 249.742188 152.039062 249.417969 152.410156 249.015625 152.714844 C 248.617188 153.019531 248.171875 153.238281 247.683594 153.367188 Z M 247.683594 153.367188 " fill-opacity="1" fill-rule="nonzero"/></g></g></g><g clip-path="url(#e4e6699224)"><g clip-path="url(#ec21ce33f9)"><g clip-path="url(#966cfcd69b)"><path fill="#8ebb54" d="M 259.46875 247.050781 C 258.980469 247.179688 258.488281 247.210938 257.988281 247.144531 C 257.488281 247.078125 257.023438 246.917969 256.585938 246.664062 C 256.148438 246.414062 255.777344 246.085938 255.472656 245.683594 C 255.167969 245.285156 254.949219 244.839844 254.820312 244.355469 C 254.691406 243.867188 254.660156 243.375 254.726562 242.875 C 254.792969 242.375 254.953125 241.90625 255.207031 241.472656 C 255.460938 241.035156 255.785156 240.664062 256.1875 240.359375 C 256.585938 240.050781 257.03125 239.835938 257.519531 239.707031 C 258.003906 239.578125 258.5 239.546875 259 239.613281 C 259.496094 239.679688 259.964844 239.839844 260.402344 240.09375 C 260.835938 240.34375 261.207031 240.671875 261.515625 241.070312 C 261.820312 241.472656 262.039062 241.917969 262.167969 242.402344 C 262.296875 242.890625 262.328125 243.382812 262.261719 243.882812 C 262.195312 244.382812 262.035156 244.851562 261.78125 245.285156 C 261.527344 245.722656 261.199219 246.09375 260.800781 246.398438 C 260.398438 246.703125 259.957031 246.921875 259.46875 247.050781 Z M 259.46875 247.050781 " fill-opacity="1" fill-rule="nonzero"/></g></g></g><g clip-path="url(#50ea069527)"><g clip-path="url(#c8ce799413)"><g clip-path="url(#6b9d5d83e5)"><path fill="#8ebb54" d="M 221.019531 206.6875 C 220.535156 206.816406 220.039062 206.847656 219.539062 206.78125 C 219.042969 206.714844 218.574219 206.554688 218.136719 206.300781 C 217.703125 206.046875 217.332031 205.71875 217.023438 205.320312 C 216.71875 204.917969 216.5 204.476562 216.371094 203.988281 C 216.242188 203.5 216.210938 203.007812 216.277344 202.507812 C 216.34375 202.007812 216.503906 201.542969 216.757812 201.105469 C 217.011719 200.667969 217.339844 200.296875 217.738281 199.992188 C 218.140625 199.6875 218.582031 199.46875 219.070312 199.339844 C 219.558594 199.210938 220.050781 199.179688 220.550781 199.246094 C 221.050781 199.3125 221.515625 199.472656 221.953125 199.726562 C 222.390625 199.980469 222.761719 200.304688 223.066406 200.707031 C 223.371094 201.105469 223.589844 201.550781 223.71875 202.039062 C 223.847656 202.523438 223.878906 203.019531 223.8125 203.519531 C 223.746094 204.015625 223.585938 204.484375 223.332031 204.921875 C 223.078125 205.355469 222.753906 205.726562 222.351562 206.035156 C 221.953125 206.339844 221.507812 206.558594 221.019531 206.6875 Z M 221.019531 206.6875 " fill-opacity="1" fill-rule="nonzero"/></g></g></g><g clip-path="url(#d4ce7de4d1)"><g clip-path="url(#92b17362e2)"><g clip-path="url(#1e59a7704e)"><path fill="#8ebb54" d="M 264.136719 198.03125 C 263.648438 198.160156 263.15625 198.191406 262.65625 198.125 C 262.15625 198.054688 261.6875 197.894531 261.253906 197.644531 C 260.816406 197.390625 260.445312 197.0625 260.140625 196.664062 C 259.835938 196.261719 259.617188 195.820312 259.488281 195.332031 C 259.359375 194.84375 259.328125 194.351562 259.394531 193.851562 C 259.460938 193.351562 259.621094 192.882812 259.875 192.449219 C 260.128906 192.011719 260.453125 191.640625 260.855469 191.335938 C 261.253906 191.03125 261.699219 190.8125 262.1875 190.683594 C 262.671875 190.554688 263.167969 190.523438 263.664062 190.589844 C 264.164062 190.65625 264.632812 190.816406 265.070312 191.070312 C 265.503906 191.324219 265.875 191.648438 266.179688 192.050781 C 266.488281 192.449219 266.703125 192.894531 266.835938 193.382812 C 266.964844 193.867188 266.996094 194.363281 266.929688 194.859375 C 266.859375 195.359375 266.699219 195.828125 266.449219 196.265625 C 266.195312 196.699219 265.867188 197.070312 265.46875 197.375 C 265.066406 197.683594 264.625 197.898438 264.136719 198.03125 Z M 264.136719 198.03125 " fill-opacity="1" fill-rule="nonzero"/></g></g></g><g clip-path="url(#d2c23cd518)"><g clip-path="url(#a729679747)"><g clip-path="url(#aae2da1a4f)"><path fill="#09694f" d="M 288.164062 220.03125 C 287.675781 220.160156 287.183594 220.191406 286.683594 220.125 C 286.183594 220.058594 285.714844 219.898438 285.28125 219.644531 C 284.84375 219.390625 284.472656 219.066406 284.167969 218.664062 C 283.863281 218.265625 283.644531 217.820312 283.515625 217.332031 C 283.386719 216.847656 283.355469 216.351562 283.421875 215.851562 C 283.488281 215.351562 283.648438 214.886719 283.902344 214.449219 C 284.15625 214.015625 284.480469 213.644531 284.882812 213.335938 C 285.28125 213.03125 285.726562 212.8125 286.214844 212.683594 C 286.699219 212.554688 287.195312 212.523438 287.691406 212.589844 C 288.191406 212.65625 288.660156 212.816406 289.097656 213.070312 C 289.53125 213.324219 289.902344 213.652344 290.207031 214.050781 C 290.515625 214.453125 290.734375 214.894531 290.863281 215.382812 C 290.992188 215.871094 291.023438 216.363281 290.957031 216.863281 C 290.886719 217.363281 290.726562 217.828125 290.476562 218.265625 C 290.222656 218.703125 289.894531 219.070312 289.496094 219.378906 C 289.09375 219.683594 288.652344 219.902344 288.164062 220.03125 Z M 288.164062 220.03125 " fill-opacity="1" fill-rule="nonzero"/></g></g></g><g clip-path="url(#3fd4b2c6db)"><g clip-path="url(#d3e8c9fb5d)"><g clip-path="url(#dc14b2d63d)"><path fill="#09694f" d="M 241.746094 221.496094 C 241.257812 221.628906 240.765625 221.660156 240.265625 221.589844 C 239.765625 221.523438 239.296875 221.363281 238.859375 221.113281 C 238.425781 220.859375 238.054688 220.53125 237.75 220.132812 C 237.441406 219.730469 237.226562 219.285156 237.097656 218.800781 C 236.964844 218.3125 236.933594 217.820312 237.003906 217.320312 C 237.070312 216.820312 237.230469 216.351562 237.480469 215.917969 C 237.734375 215.480469 238.0625 215.109375 238.460938 214.804688 C 238.863281 214.5 239.308594 214.28125 239.792969 214.152344 C 240.28125 214.023438 240.773438 213.992188 241.273438 214.058594 C 241.773438 214.125 242.242188 214.285156 242.675781 214.539062 C 243.113281 214.789062 243.484375 215.117188 243.789062 215.519531 C 244.09375 215.917969 244.3125 216.363281 244.441406 216.847656 C 244.570312 217.335938 244.601562 217.828125 244.535156 218.328125 C 244.46875 218.828125 244.308594 219.296875 244.054688 219.734375 C 243.804688 220.167969 243.476562 220.539062 243.074219 220.84375 C 242.675781 221.152344 242.230469 221.367188 241.746094 221.496094 Z M 241.746094 221.496094 " fill-opacity="1" fill-rule="nonzero"/></g></g></g><g clip-path="url(#1994465e35)"><g clip-path="url(#d8e669c869)"><g clip-path="url(#be9ef85a7f)"><path fill="#09694f" d="M 215.261719 253.257812 C 214.597656 253.433594 213.925781 253.542969 213.242188 253.585938 C 212.554688 253.628906 211.875 253.605469 211.191406 253.515625 C 210.511719 253.425781 209.847656 253.269531 209.199219 253.046875 C 208.550781 252.824219 207.929688 252.539062 207.335938 252.195312 C 206.742188 251.851562 206.1875 251.453125 205.671875 251 C 205.15625 250.546875 204.691406 250.046875 204.277344 249.5 C 203.859375 248.957031 203.5 248.375 203.199219 247.757812 C 202.894531 247.140625 202.65625 246.503906 202.480469 245.839844 C 202.304688 245.175781 202.195312 244.503906 202.152344 243.816406 C 202.109375 243.132812 202.132812 242.449219 202.222656 241.769531 C 202.316406 241.089844 202.472656 240.425781 202.691406 239.777344 C 202.914062 239.128906 203.199219 238.503906 203.542969 237.914062 C 203.886719 237.320312 204.285156 236.765625 204.738281 236.25 C 205.195312 235.734375 205.691406 235.269531 206.238281 234.851562 C 206.785156 234.4375 207.363281 234.078125 207.980469 233.773438 C 208.597656 233.472656 209.238281 233.234375 209.898438 233.058594 C 210.5625 232.882812 211.238281 232.773438 211.921875 232.730469 C 212.605469 232.6875 213.289062 232.710938 213.96875 232.800781 C 214.648438 232.890625 215.3125 233.046875 215.960938 233.269531 C 216.613281 233.492188 217.234375 233.777344 217.828125 234.121094 C 218.421875 234.464844 218.972656 234.863281 219.488281 235.316406 C 220.003906 235.769531 220.46875 236.269531 220.886719 236.816406 C 221.300781 237.359375 221.660156 237.941406 221.964844 238.558594 C 222.265625 239.175781 222.503906 239.8125 222.679688 240.476562 C 222.855469 241.140625 222.964844 241.8125 223.011719 242.5 C 223.054688 243.183594 223.03125 243.867188 222.9375 244.546875 C 222.847656 245.226562 222.691406 245.890625 222.46875 246.539062 C 222.246094 247.1875 221.964844 247.8125 221.617188 248.402344 C 221.273438 248.996094 220.875 249.550781 220.421875 250.066406 C 219.96875 250.582031 219.46875 251.046875 218.921875 251.464844 C 218.378906 251.878906 217.796875 252.238281 217.179688 252.542969 C 216.566406 252.84375 215.925781 253.082031 215.261719 253.257812 Z M 215.261719 253.257812 " fill-opacity="1" fill-rule="nonzero"/></g></g></g><g clip-path="url(#09dda35bb2)"><g clip-path="url(#8ca25b9103)"><g clip-path="url(#08e76bf00d)"><path fill="#5d9f41" d="M 229.578125 277.664062 C 228.761719 277.882812 227.929688 278.015625 227.089844 278.070312 C 226.246094 278.125 225.40625 278.09375 224.570312 277.980469 C 223.730469 277.871094 222.914062 277.675781 222.113281 277.402344 C 221.316406 277.128906 220.550781 276.78125 219.820312 276.359375 C 219.089844 275.933594 218.410156 275.441406 217.777344 274.886719 C 217.140625 274.328125 216.570312 273.710938 216.058594 273.042969 C 215.542969 272.371094 215.101562 271.65625 214.730469 270.898438 C 214.359375 270.140625 214.066406 269.351562 213.847656 268.535156 C 213.632812 267.71875 213.496094 266.890625 213.441406 266.046875 C 213.390625 265.207031 213.417969 264.367188 213.53125 263.527344 C 213.644531 262.691406 213.835938 261.875 214.109375 261.074219 C 214.382812 260.277344 214.730469 259.511719 215.15625 258.78125 C 215.578125 258.050781 216.070312 257.367188 216.628906 256.734375 C 217.1875 256.101562 217.800781 255.527344 218.472656 255.015625 C 219.144531 254.503906 219.859375 254.0625 220.617188 253.691406 C 221.375 253.320312 222.160156 253.023438 222.976562 252.808594 C 223.792969 252.589844 224.621094 252.457031 225.464844 252.402344 C 226.308594 252.347656 227.148438 252.378906 227.984375 252.492188 C 228.820312 252.601562 229.640625 252.796875 230.4375 253.070312 C 231.238281 253.34375 232 253.691406 232.730469 254.113281 C 233.460938 254.539062 234.144531 255.03125 234.777344 255.589844 C 235.410156 256.144531 235.984375 256.761719 236.496094 257.433594 C 237.007812 258.101562 237.453125 258.816406 237.824219 259.574219 C 238.195312 260.332031 238.488281 261.121094 238.707031 261.9375 C 238.921875 262.753906 239.058594 263.582031 239.109375 264.425781 C 239.164062 265.269531 239.132812 266.109375 239.023438 266.945312 C 238.910156 267.78125 238.71875 268.597656 238.445312 269.398438 C 238.171875 270.195312 237.820312 270.960938 237.398438 271.691406 C 236.972656 272.421875 236.484375 273.105469 235.925781 273.738281 C 235.367188 274.371094 234.753906 274.945312 234.082031 275.457031 C 233.410156 275.96875 232.695312 276.410156 231.9375 276.78125 C 231.179688 277.15625 230.390625 277.449219 229.578125 277.664062 Z M 229.578125 277.664062 " fill-opacity="1" fill-rule="nonzero"/></g></g></g><g clip-path="url(#2535d46517)"><g clip-path="url(#0810e060bc)"><g clip-path="url(#3e21721959)"><path fill="#5d9f41" d="M 203.65625 270.445312 C 203.089844 270.597656 202.515625 270.691406 201.929688 270.726562 C 201.34375 270.761719 200.761719 270.742188 200.179688 270.664062 C 199.597656 270.585938 199.03125 270.453125 198.476562 270.265625 C 197.921875 270.074219 197.390625 269.832031 196.882812 269.539062 C 196.375 269.242188 195.902344 268.902344 195.460938 268.515625 C 195.023438 268.128906 194.625 267.699219 194.269531 267.234375 C 193.914062 266.769531 193.605469 266.273438 193.347656 265.746094 C 193.089844 265.21875 192.886719 264.671875 192.734375 264.105469 C 192.585938 263.539062 192.492188 262.964844 192.453125 262.378906 C 192.417969 261.792969 192.4375 261.210938 192.515625 260.628906 C 192.59375 260.046875 192.726562 259.480469 192.917969 258.925781 C 193.105469 258.371094 193.347656 257.839844 193.640625 257.332031 C 193.9375 256.824219 194.277344 256.351562 194.664062 255.910156 C 195.054688 255.472656 195.480469 255.074219 195.945312 254.71875 C 196.410156 254.363281 196.90625 254.054688 197.433594 253.796875 C 197.960938 253.539062 198.507812 253.335938 199.074219 253.183594 C 199.640625 253.035156 200.214844 252.941406 200.800781 252.902344 C 201.386719 252.867188 201.96875 252.886719 202.550781 252.964844 C 203.132812 253.042969 203.699219 253.175781 204.253906 253.367188 C 204.808594 253.554688 205.339844 253.796875 205.847656 254.089844 C 206.355469 254.386719 206.828125 254.726562 207.269531 255.113281 C 207.707031 255.503906 208.105469 255.929688 208.460938 256.394531 C 208.816406 256.859375 209.125 257.355469 209.382812 257.882812 C 209.640625 258.410156 209.84375 258.957031 209.996094 259.523438 C 210.148438 260.089844 210.242188 260.664062 210.277344 261.25 C 210.3125 261.835938 210.292969 262.417969 210.214844 263 C 210.136719 263.582031 210.003906 264.148438 209.816406 264.703125 C 209.625 265.257812 209.382812 265.789062 209.089844 266.296875 C 208.792969 266.804688 208.453125 267.277344 208.066406 267.71875 C 207.679688 268.15625 207.25 268.554688 206.785156 268.910156 C 206.320312 269.265625 205.824219 269.574219 205.296875 269.832031 C 204.769531 270.089844 204.222656 270.296875 203.65625 270.445312 Z M 203.65625 270.445312 " fill-opacity="1" fill-rule="nonzero"/></g></g></g><g clip-path="url(#cf20d7c0d6)"><g clip-path="url(#ee192d3fbb)"><g clip-path="url(#93630472fc)"><path fill="#09694f" d="M 171.703125 261.878906 C 171.214844 262.007812 170.722656 262.039062 170.222656 261.972656 C 169.722656 261.90625 169.253906 261.746094 168.820312 261.492188 C 168.382812 261.242188 168.011719 260.914062 167.707031 260.511719 C 167.398438 260.113281 167.183594 259.667969 167.054688 259.183594 C 166.925781 258.695312 166.894531 258.203125 166.960938 257.703125 C 167.027344 257.203125 167.1875 256.734375 167.441406 256.300781 C 167.691406 255.863281 168.019531 255.492188 168.421875 255.1875 C 168.820312 254.878906 169.265625 254.664062 169.75 254.535156 C 170.238281 254.402344 170.730469 254.371094 171.230469 254.441406 C 171.730469 254.507812 172.199219 254.667969 172.632812 254.917969 C 173.070312 255.171875 173.441406 255.5 173.746094 255.898438 C 174.054688 256.300781 174.269531 256.746094 174.398438 257.230469 C 174.527344 257.71875 174.558594 258.210938 174.492188 258.710938 C 174.425781 259.210938 174.265625 259.679688 174.011719 260.113281 C 173.761719 260.550781 173.433594 260.921875 173.03125 261.226562 C 172.632812 261.53125 172.1875 261.75 171.703125 261.878906 Z M 171.703125 261.878906 " fill-opacity="1" fill-rule="nonzero"/></g></g></g><g clip-path="url(#976e4a09a7)"><g clip-path="url(#959ecd4b91)"><g clip-path="url(#d371b0b975)"><path fill="#09694f" d="M 280.851562 145.359375 C 280.367188 145.488281 279.871094 145.519531 279.375 145.453125 C 278.875 145.386719 278.40625 145.226562 277.96875 144.972656 C 277.535156 144.71875 277.164062 144.390625 276.855469 143.992188 C 276.550781 143.589844 276.332031 143.148438 276.203125 142.660156 C 276.074219 142.171875 276.042969 141.679688 276.109375 141.179688 C 276.179688 140.679688 276.339844 140.214844 276.589844 139.777344 C 276.84375 139.339844 277.171875 138.96875 277.570312 138.664062 C 277.972656 138.359375 278.414062 138.140625 278.902344 138.011719 C 279.390625 137.882812 279.882812 137.851562 280.382812 137.917969 C 280.882812 137.984375 281.351562 138.144531 281.785156 138.398438 C 282.222656 138.652344 282.59375 138.976562 282.898438 139.378906 C 283.203125 139.777344 283.421875 140.222656 283.550781 140.710938 C 283.679688 141.195312 283.710938 141.691406 283.644531 142.191406 C 283.578125 142.6875 283.417969 143.15625 283.164062 143.59375 C 282.910156 144.027344 282.585938 144.398438 282.183594 144.707031 C 281.785156 145.011719 281.339844 145.230469 280.851562 145.359375 Z M 280.851562 145.359375 " fill-opacity="1" fill-rule="nonzero"/></g></g></g><g clip-path="url(#7f608f28a5)"><g clip-path="url(#a118b30943)"><g clip-path="url(#5ebe125d52)"><path fill="#09694f" d="M 250.730469 169.984375 C 250.242188 170.113281 249.75 170.144531 249.25 170.078125 C 248.75 170.011719 248.285156 169.851562 247.847656 169.597656 C 247.410156 169.34375 247.042969 169.015625 246.734375 168.617188 C 246.429688 168.214844 246.210938 167.773438 246.082031 167.285156 C 245.953125 166.796875 245.921875 166.304688 245.988281 165.804688 C 246.054688 165.304688 246.214844 164.839844 246.46875 164.402344 C 246.722656 163.964844 247.046875 163.597656 247.449219 163.289062 C 247.847656 162.984375 248.292969 162.765625 248.78125 162.636719 C 249.265625 162.507812 249.761719 162.476562 250.261719 162.542969 C 250.761719 162.609375 251.226562 162.769531 251.664062 163.023438 C 252.097656 163.277344 252.46875 163.601562 252.777344 164.003906 C 253.082031 164.40625 253.300781 164.847656 253.429688 165.335938 C 253.558594 165.824219 253.589844 166.316406 253.523438 166.816406 C 253.457031 167.316406 253.296875 167.78125 253.042969 168.21875 C 252.789062 168.652344 252.460938 169.023438 252.0625 169.332031 C 251.660156 169.636719 251.21875 169.855469 250.730469 169.984375 Z M 250.730469 169.984375 " fill-opacity="1" fill-rule="nonzero"/></g></g></g><g clip-path="url(#37c96971d3)"><g clip-path="url(#dfebcf4d6d)"><g clip-path="url(#e57f9e4368)"><path fill="#5d9f41" d="M 239.957031 70 C 237.410156 73.132812 232.808594 73.605469 229.679688 71.058594 L 206.707031 52.371094 C 202.007812 65.15625 203.785156 79.121094 205.835938 95.722656 C 207.625 109.820312 209.472656 124.460938 207.480469 140.316406 C 205.152344 158.871094 197.773438 175.484375 185.039062 191.214844 C 172.296875 206.875 157.464844 217.492188 139.769531 223.546875 C 124.585938 228.730469 109.945312 229.894531 95.773438 231.011719 C 79.164062 232.308594 65.128906 233.410156 53.507812 240.6875 L 76.480469 259.375 C 79.613281 261.925781 80.085938 266.523438 77.539062 269.65625 C 74.988281 272.789062 70.390625 273.261719 67.257812 270.710938 L 42.421875 250.507812 C 38.417969 255.429688 31.183594 256.175781 26.257812 252.171875 C 21.335938 248.167969 20.59375 240.929688 24.597656 236.007812 C 44.132812 211.992188 69.488281 210 93.964844 208.097656 C 107.253906 207.074219 120.132812 206.023438 132.539062 201.738281 L 86.300781 164.121094 C 83.167969 161.574219 82.695312 156.976562 85.242188 153.84375 C 87.789062 150.710938 92.386719 150.238281 95.519531 152.785156 L 147.132812 194.769531 C 152.269531 191.578125 157.378906 187.429688 162.308594 182.207031 L 102.570312 133.609375 C 99.4375 131.058594 98.964844 126.460938 101.511719 123.328125 C 104.0625 120.195312 108.660156 119.722656 111.792969 122.273438 L 171.53125 170.871094 C 175.640625 164.980469 178.601562 159.210938 180.742188 153.453125 L 129.132812 111.46875 C 126 108.917969 125.527344 104.320312 128.078125 101.1875 C 130.625 98.054688 135.222656 97.582031 138.355469 100.132812 L 184.597656 137.75 C 186.265625 124.726562 184.671875 111.90625 182.972656 98.6875 C 179.851562 74.335938 176.640625 49.105469 196.179688 25.089844 C 200.183594 20.167969 207.417969 19.425781 212.339844 23.429688 C 217.265625 27.433594 218.007812 34.667969 214.003906 39.59375 L 238.894531 59.652344 C 242.027344 62.203125 242.5 66.800781 239.957031 70 Z M 239.957031 70 " fill-opacity="1" fill-rule="nonzero"/></g></g></g><g clip-path="url(#d76c135e79)"><g clip-path="url(#c0fed3061e)"><g clip-path="url(#3bcc875f8a)"><path fill="#8ebb54" d="M 253.445312 71.550781 C 233.90625 95.566406 208.550781 97.558594 184.074219 99.460938 C 157.910156 101.539062 133.164062 103.46875 110.894531 130.839844 C 88.628906 158.210938 91.777344 182.832031 95.070312 208.871094 C 98.1875 233.222656 101.398438 258.453125 81.863281 282.46875 C 77.859375 287.390625 70.621094 288.136719 65.699219 284.132812 C 60.777344 280.125 60.03125 272.890625 64.039062 267.96875 C 77.386719 251.558594 75.105469 234.027344 72.265625 211.765625 C 70.476562 197.664062 68.628906 183.023438 70.621094 167.167969 C 72.949219 148.613281 80.332031 132 93.0625 116.269531 C 105.796875 100.539062 120.636719 89.992188 138.332031 83.9375 C 153.515625 78.753906 168.160156 77.589844 182.328125 76.472656 C 204.699219 74.71875 222.324219 73.316406 235.679688 56.976562 C 239.683594 52.054688 246.917969 51.308594 251.84375 55.316406 C 256.703125 59.394531 257.449219 66.628906 253.445312 71.550781 Z M 253.445312 71.550781 " fill-opacity="1" fill-rule="nonzero"/></g></g></g><g clip-path="url(#8766d1e956)"><g clip-path="url(#4acb730cb2)"><g clip-path="url(#3f78c28231)"><path fill="#09694f" d="M 224.605469 66.933594 C 228.589844 64.472656 232.289062 61.222656 235.6875 57.042969 L 238.894531 59.652344 C 242.027344 62.203125 242.5 66.800781 239.949219 69.933594 C 237.402344 73.066406 232.804688 73.539062 229.671875 70.988281 Z M 71.46875 255.175781 C 69.871094 259.578125 67.441406 263.859375 64.042969 268.035156 L 67.25 270.644531 C 70.382812 273.191406 74.980469 272.71875 77.53125 269.585938 C 80.078125 266.457031 79.605469 261.855469 76.472656 259.308594 Z M 95.574219 152.644531 C 92.441406 150.09375 87.84375 150.570312 85.296875 153.699219 C 82.746094 156.832031 83.21875 161.433594 86.351562 163.980469 L 93.511719 169.804688 C 94.207031 164.609375 95.378906 159.363281 97.363281 154.101562 Z M 111.851562 122.199219 C 108.71875 119.648438 104.121094 120.121094 101.574219 123.253906 C 99.027344 126.386719 99.5 130.984375 102.628906 133.535156 L 106.507812 136.6875 C 107.882812 134.769531 109.320312 132.777344 110.894531 130.839844 C 112.472656 128.898438 114.125 127.019531 115.730469 125.351562 Z M 138.417969 100.058594 C 135.285156 97.507812 130.683594 97.980469 128.136719 101.113281 C 125.589844 104.246094 126.0625 108.84375 129.195312 111.394531 L 130.910156 112.789062 C 135.722656 109.765625 140.554688 107.558594 145.5 105.820312 Z M 138.417969 100.058594 " fill-opacity="1" fill-rule="nonzero"/></g></g></g></svg>